<svg xmlns="http://www.w3.org/2000/svg" viewBox="0 0 200 83.8"><path d="M93.6 11.7v43.5h6.9V36.5h8v18.7h8V12h-7.7v18.4h-8V11.7zm83.5 0v43.5h6.9V36.5h8v18.7h8V12h-7.7v18.4h-8V11.7zm-39.4.2h-8.8l-8 43.5h6.1l1.9-9.9h8.8l2.7 9.6h6.1l-8.8-43.2zm-8 28.2l3.7-21.1 3.5 21.1h-7.2zm40.6-16v-7.7s0-3.7-4.3-4.5h-10.7s-3.7.3-4.3 4.5v14.9s.3 3.2 3.5 4.3h8.8v14.1h-6.1v-6.9h-6.9v8.8s.3 3.5 4.3 4.3H166s3.7-.3 4.5-5.1V35.1s-.3-3.7-4.5-4.5h-8.8V17.2h6.1v6.9h7zM93.6 69.6v-4.9c0-1.4.7-2.2 2.1-2.2s2.1.8 2.1 2.2v1h-1.3v-1c0-.6-.3-.8-.7-.8s-.8.2-.8.8v5.1c0 .6.3.8.7.8s.7-.2.7-.8v-1.4h1.3v1.3c0 1.4-.7 2.2-2.1 2.2-1.3-.1-2-.9-2-2.3zm5.1-6.9h2.1c1.5 0 2.1.7 2.1 2.1v.6c0 .9-.3 1.5-.9 1.8.7.2.9.9.9 1.9v1.6c0 .4 0 .8.2 1.1h-1.4c-.1-.2-.1-.4-.1-1.1V69c0-.8-.2-1.1-.9-1.1h-.5v3.9h-1.4l-.1-9.1zm2 3.8c.5 0 .9-.2.9-1v-.7c0-.6-.2-.9-.7-.9h-.6v2.6h.4zm4.5 1.4l-1.7-5.2h1.5l1 3.3 1-3.3h1.4l-1.7 5.2v3.9h-1.4v-3.9zm3.9-5.2h2.1c1.4 0 2.1.8 2.1 2.2v.9c0 1.4-.7 2.2-2.1 2.2h-.7v3.7h-1.4v-9zm2 4c.5 0 .7-.2.7-.9v-1.1c0-.6-.2-.9-.7-.9h-.7v2.8h.7zm4.2-2.7h-1.5v-1.3h4.4V64h-1.5v7.8h-1.4V64zm3.5 5.6v-4.8c0-1.4.8-2.3 2.2-2.3 1.4 0 2.2.8 2.2 2.3v4.8c0 1.4-.8 2.3-2.2 2.3-1.4-.1-2.2-.9-2.2-2.3zm2.9.1v-4.9c0-.6-.3-.9-.7-.9-.5 0-.7.2-.7.9v4.9c0 .6.3.9.7.9.5 0 .7-.3.7-.9zm4.7-7h1.4v9h-1.4v-9zm2.6 0h1.8l1.4 5.4v-5.4h1.3v9H132l-1.7-6.6v6.6H129v-9zm5.3 0h1.4l.9 7 .9-7h1.3l-1.4 9h-1.9l-1.2-9zm5.4 0h3.9V64h-2.5v2.4h2v1.3h-2v2.8h2.5v1.3h-3.9v-9.1zm4.6 6.9v-.5h1.3v.6c0 .6.3.9.7.9.5 0 .7-.2.7-.9s-.3-1.2-1.2-2c-1.2-1-1.6-1.8-1.6-2.8 0-1.4.7-2.2 2.1-2.2 1.4 0 2.1.8 2.1 2.3v.4h-1.3v-.5c0-.6-.3-.9-.7-.9-.5 0-.7.2-.7.9s.3 1.1 1.2 2c1.2 1 1.6 1.8 1.6 2.9 0 1.5-.7 2.3-2.1 2.3-1.4-.3-2.1-1.1-2.1-2.5zm6.3-5.6h-1.5v-1.3h4.4V64H152v7.8h-1.4V64zm3.7-1.3h2l.9 6.5.9-6.5h2v9h-1.3v-6.8l-1 6.8h-1.2l-1-6.8v6.8h-1.2l-.1-9zm7 0h3.9V64h-2.5v2.4h2v1.3h-2v2.8h2.5v1.3h-3.9v-9.1zm4.9 0h1.8l1.4 5.4v-5.4h1.3v9h-1.5l-1.7-6.6v6.6h-1.3v-9zm6.7 1.3h-1.5v-1.3h4.4V64h-1.5v7.8h-1.4V64zm5.9-1.3h2.1c1.5 0 2.1.7 2.1 2.1v.4c0 .9-.3 1.5-.9 1.8.8.3 1.1.9 1.1 1.9v.8c0 1.4-.7 2.1-2.2 2.1h-2.2v-9.1zm2 3.7c.5 0 .9-.2.9-1v-.5c0-.6-.2-.9-.7-.9h-.7v2.4h.5zm.2 4c.5 0 .7-.2.7-.9v-.8c0-.8-.3-1.1-.9-1.1h-.6v2.8h.8zm4.2-7.7h1.9l1.5 9h-1.4l-.3-1.8h-1.6l-.3 1.8h-1.3l1.5-9zm1.6 6l-.6-4.5-.6 4.5h1.2zm2.6-6h1.8l1.4 5.4v-5.4h1.3v9h-1.5l-1.7-6.6v6.6h-1.3v-9zm5.7 0h1.4v3.8l1.8-3.8h1.4L198 66l1.7 5.7h-1.5l-1.2-4-.6 1.2v2.9H195l.1-9.1z"/><path d="M29.1 43.7L23 49.8l32.7 32.6c.8.8 2 1.3 3.1 1.3s2.2-.4 3.1-1.3c1.7-1.7 1.7-4.4 0-6.1L29.1 43.7zm-15.7-3.5l6.1-6.2L7.4 22c-1.7-1.7-4.4-1.7-6.1 0-1.7 1.7-1.7 4.4 0 6.1l12.1 12.1zm41.3 0l6.1-6.2L28 1.4c-1.7-1.7-4.4-1.7-6.1 0-1.7 1.7-1.7 4.4 0 6.1l32.8 32.7zm15.7 3.4l-6.1 6.2 12.1 12.1c.8.8 2 1.3 3.1 1.3s2.2-.4 3.1-1.3c1.7-1.7 1.7-4.4 0-6.1L70.4 43.6zM34.1 64.3L22 76.4c-1.7 1.7-1.7 4.4 0 6.1.8.8 2 1.3 3.1 1.3s2.2-.4 3.1-1.3l12.1-12.1-6.2-6.1zm48.3-42.4c-1.7-1.7-4.4-1.7-6.1 0L43.7 54.7l6.2 6.1L82.4 28c1.7-1.7 1.7-4.4 0-6.1zm-32.7-2.4L61.8 7.4c1.7-1.7 1.7-4.4 0-6.1-1.7-1.7-4.4-1.7-6.1 0L43.6 13.4l6.1 6.1zM34 23L1.4 55.8c-1.7 1.7-1.7 4.4 0 6.1.8.8 2 1.3 3.1 1.3s2.2-.4 3.1-1.3l32.6-32.7L34 23z" fill="#7a9361"/></svg>