<svg xmlns="http://www.w3.org/2000/svg" viewBox="0 0 200 81.3"><ellipse cx="10.7" cy="10.8" rx="10.7" ry="10.8" fill="#efa21f"/><path d="M36.5 3.5H22.2c1.3 2.1 2.1 4.6 2.1 7.3 0 7.6-6.1 13.7-13.6 13.7-2.7 0-5.2-.8-7.3-2.1v58.9h18.7V53.5H36s24.1.7 24.1-24.3S36.5 3.5 36.5 3.5zm-3.3 33h-11V20.7h11.2s8 .2 8 8.1-8.2 7.7-8.2 7.7z" fill="#9b9da0"/><path d="M78.8 23.2h3.7v15.2h-3.7zm0-6h3.9v2.9h-3.9zM94 22.9c-1.7 0-3 .7-3.7 1.5v-1.1h-4.2v15.2h4.2V28.2c.1-.4.6-1.8 2.4-1.8 2 0 2.4 1.5 2.4 2v10.1h4V28.4s-.2-5.5-5.1-5.5zm45.7 0c-1.7 0-3 .7-3.7 1.5v-1.1h-4.2v15.2h4.2V28.2c.1-.4.6-1.8 2.4-1.8 2 0 2.4 1.5 2.4 2v10.1h4V28.4s-.2-5.5-5.1-5.5zm23.6 15.6c1.7 0 3-.7 3.7-1.5v1.1h4.2V22.9H167v10.3c-.1.4-.6 1.8-2.4 1.8-2 0-2.4-1.5-2.4-2V22.9h-4V33s.2 5.5 5.1 5.5zm-48.8-15.1h-3.6l-3.2 9.1-3.2-9.1h-3.7l5 14.3.3.8h3.1l.3-.8zm7.9-.5c-5.9 0-6.6 5.3-6.6 6.2v4.4s.2 5 6.8 5c4.6 0 5.9-2.2 5.9-2.2l-2.2-2.2s-1.5 1.5-4.2 1.5-2.8-2.2-2.8-2.2V32h9.4v-2.6c0 .1 0-6.5-6.3-6.5zm-3.1 6.6c0-.7.2-3.2 2.9-3.2 2.4 0 2.9 2.2 3 3.2h-5.9zm74.5-6.6c-5.9 0-6.6 5.3-6.6 6.2v4.4s.2 5 6.8 5c4.6 0 5.9-2.2 5.9-2.2l-2.2-2.2s-1.5 1.5-4.2 1.5-2.8-2.2-2.8-2.2V32h9.4v-2.6c-.1.1-.1-6.5-6.3-6.5zm-3.2 6.6c0-.7.2-3.2 2.9-3.2 2.4 0 2.9 2.2 3 3.2h-5.9zm-34.8-2.8v-2.9H153v-4.6h-3.7v4.6h-1.7v2.9h1.7v8.8s0 .9.9 1.8c1.1 1.1 2.2 1.1 2.2 1.1h3.3v-3.3H154c-1 0-1.1-.6-1.1-.6v-7.9h2.9zm26.2-3.6c-1.7 0-3.1 1.1-3.9 1.9v-1.5h-3.7v15h3.7v-9.3s.9-2.6 2.6-2.6c1.7 0 2 .9 2 .9l2.9-2.9c.1-.1-.8-1.5-3.6-1.5zm-3.3 35.7h.2zm-35.6-15.6c-1.7 0-3 .7-3.7 1.5v-1.1h-4.2v15.2h4.2V48.5c.1-.4.6-1.8 2.4-1.8 2 0 2.4 1.5 2.4 2v10.1h4V48.7c.1 0-.1-5.5-5.1-5.5zm14.9 0c-5.9 0-6.6 5.3-6.6 6.2v4.4s.2 5 6.8 5c4.6 0 5.9-2.2 5.9-2.2l-2.2-2.2s-1.5 1.5-4.2 1.5-2.8-2.2-2.8-2.2v-1.3h9.4v-2.6c-.1 0-.1-6.6-6.3-6.6zm-3.1 6.6c0-.7.2-3.2 2.9-3.2 2.4 0 2.9 2.2 3 3.2h-5.9zm-22.6-2.7v-2.9h-2.8v-4.6h-3.7v4.6h-1.7v2.9h1.7v8.8s0 .9.9 1.8c1.1 1.1 2.2 1.1 2.2 1.1h3.3v-3.3h-1.7c-.9 0-1.1-.6-1.1-.6V47h2.9zm42.8-3.7c-1.7 0-3.1 1.1-3.9 1.9v-1.5h-3.7v15h3.7v-9.3s.9-2.6 2.6-2.6c1.7 0 2 .9 2 .9l2.9-2.9s-.9-1.5-3.6-1.5zm-57.1 0c-1.7 0-3.1 1.1-3.9 1.9v-1.5h-3.7v15h3.7v-9.3s.9-2.6 2.6-2.6 2 .9 2 .9l2.9-2.9c.1 0-.8-1.5-3.6-1.5zm-26.8 11v-7.2c0-2.2-1.8-4-4.8-4-2.8 0-3.9 1.3-4 1.4v-1.4h-3.7v20.9h3.7v-6.7c.8.7 2 1.4 3.5 1.4 5.7 0 5.3-4.4 5.3-4.4zm-3.5-1.2s0 2.4-2.6 2.4c-1.8 0-2.5-1.3-2.7-2.1v-4.9s.3-2.1 2.5-2.1 2.8 1.3 2.8 2.4v4.3zm13.3-10s-3.7-.2-5.5 2l2.4 2.2s1.1-1.1 2.9-1.1c1.8 0 2.9 1.1 2.9 1.1v2h-4.3c-1.8 0-4.6 1.3-4.6 4.8s2 4.6 5 4.6c2.7 0 3.7-1.3 3.9-1.5v1.5h3.7V47.4s-.2-4.2-6.4-4.2zm1.3 12.5h-2.4s-1.7 0-1.7-1.8c0-1.5 1.7-1.7 1.7-1.7h3.9v2c-.4 1.1-1.5 1.5-1.5 1.5zm89.3-10.8l-2.2 2.4s-.9-1.1-3.3-1.1-2.6.9-2.6 1.7.4 1.5 1.3 1.5h3.5s3.9.2 3.9 4.6-4.8 5-4.8 5h-4s-3.1-.6-4-2.2l2.4-2.4s.9 1.3 2.2 1.3h3.1s1.5 0 1.5-1.7-1.5-1.7-1.5-1.7H184s-3.9.6-3.9-3.9 3.9-5 3.9-5h4.4s2.1.4 3.2 1.5z"/></svg>