<svg version="1.1" id="레이어_1" xmlns="http://www.w3.org/2000/svg" x="0" y="0" viewBox="0 0 200 37.4" xml:space="preserve"><style>.st0{fill:#35acef}</style><path class="st0" d="M17.7 3.4c8.4 0 15.3 6.8 15.3 15.3S26.1 34 17.7 34 2.5 27.1 2.5 18.7 9.3 3.4 17.7 3.4m0-2.4C7.9 1 0 8.9 0 18.7s7.9 17.7 17.7 17.7 17.7-7.9 17.7-17.7S27.5 1 17.7 1z"/><path class="st0" d="M34.8 36.8c-.3 0-.6-.1-.9-.4L23.5 26c-.5-.5-.5-1.3 0-1.7.5-.5 1.3-.5 1.7 0l10.5 10.5c.5.5.5 1.3 0 1.7-.3.2-.6.3-.9.3zm22.5.4c-9.6 0-17.5-7.8-17.5-17.5V1.2c0-.7.6-1.2 1.2-1.2.7 0 1.2.6 1.2 1.2v18.5c0 8.3 6.7 15 15 15s15-6.7 15-15V1.2c0-.7.6-1.2 1.2-1.2.7 0 1.2.6 1.2 1.2v18.5c.2 9.6-7.7 17.5-17.3 17.5zM96.7 3.4c8.4 0 15.3 6.8 15.3 15.3S105.1 34 96.7 34s-15.3-6.8-15.3-15.3S88.3 3.4 96.7 3.4m0-2.4C86.9 1 79 8.9 79 18.7s7.9 17.7 17.7 17.7 17.7-7.9 17.7-17.7S106.5 1 96.7 1zm25.6 36.4c-.7 0-1.2-.6-1.2-1.2v-35c0-.7.6-1.2 1.2-1.2s1.2.6 1.2 1.2v34.9c0 .7-.6 1.3-1.2 1.3zm9.1 0c-.7 0-1.2-.6-1.2-1.2v-35c0-.5.3-1 .8-1.2.5-.2 1 0 1.4.3l28.1 31.8V1.2c0-.7.6-1.2 1.2-1.2.7 0 1.2.6 1.2 1.2v34.2c0 .5-.3 1-.8 1.2-.5.2-1 0-1.4-.3L132.6 4.5v31.7c0 .6-.6 1.2-1.2 1.2zm67.4-34h-32c-.7 0-1.2-.6-1.2-1.2s.6-1.2 1.2-1.2h32c.7 0 1.2.6 1.2 1.2s-.6 1.2-1.2 1.2zm0 16.5h-32c-.7 0-1.2-.6-1.2-1.2s.6-1.2 1.2-1.2h32c.7 0 1.2.6 1.2 1.2s-.6 1.2-1.2 1.2zm0 16.8h-32c-.7 0-1.2-.6-1.2-1.2s.6-1.2 1.2-1.2h32c.7 0 1.2.6 1.2 1.2s-.6 1.2-1.2 1.2z"/></svg>