<svg version="1.1" id="레이어_1" xmlns="http://www.w3.org/2000/svg" x="0" y="0" viewBox="0 0 50 50" xml:space="preserve"><style>.st0{fill:#326464}.st1{fill:#598282}</style><path class="st0" d="M32.5 32.4l3-7.4-3.1-7.5-7.4-3v21z"/><path class="st1" d="M17.5 17.6l-3 7.4 3.1 7.5 7.4 3v-21z"/><path class="st1" d="M25 50V39.8l-10.5-4.3L10.2 25l4.3-10.4L7 8.3c-.1.1-.2.3-.2.4L0 25l6.6 15.9s.5 1 1.1 1.5c.6.5 2.2 1.3 2.2 1.3L25 50z"/><path d="M14.5 14.6L25 10.2V0L8.3 6.9c-.3.2-.6.5-.8.8-.2.2-.3.4-.5.6l7.5 6.3z" fill="#fbbb31"/><path d="M43.1 8.3c-.2-.3-.4-.5-.6-.7-.2-.2-.5-.4-.7-.6L25 0v10.2l10.4 4.3 7.7-6.2z" fill="#faaa01"/><path class="st0" d="M43.1 8.3l-7.6 6.3L39.8 25l-4.3 10.5L25 39.8V50l16.4-6.8c.4-.2.8-.5 1-.8.6-.7.9-1.4.9-1.4l.1-.1L50 25 43.1 8.3z"/></svg>