<svg xmlns="http://www.w3.org/2000/svg" viewBox="0 0 298 300"><style>.st2{fill:#fff}</style><g id="레이어_2"><path d="M711 206H568c-5.5 0-10-4.5-10-10V53c0-5.5 4.5-10 10-10h143c5.5 0 10 4.5 10 10v143c0 5.5-4.5 10-10 10z" opacity=".6" fill="#fff"/><path class="st2" d="M435.6 263h-39.4c-6.7 0-12.2-5.5-12.2-12.2V111.2c0-6.7 5.5-12.2 12.2-12.2h39.4c6.7 0 12.2 5.5 12.2 12.2v139.6c0 6.7-5.5 12.2-12.2 12.2z"/><path class="st2" d="M384 250.8v-39.4c0-6.7 5.5-12.2 12.2-12.2h139.6c6.7 0 12.2 5.5 12.2 12.2v39.4c0 6.7-5.5 12.2-12.2 12.2H396.2c-6.7 0-12.2-5.5-12.2-12.2zM464 58h-34c-6.6 0-12-5.4-12-12v-85c0-6.6 5.4-12 12-12h34c6.6 0 12 5.4 12 12v85c0 6.6-5.4 12-12 12z"/><path class="st2" d="M428 56V22c0-6.6 5.4-12 12-12h85c6.6 0 12 5.4 12 12v34c0 6.6-5.4 12-12 12h-85c-6.6 0-12-5.4-12-12z"/><path class="st2" d="M476 1s-.9 9.1 9 9c10 0 4 10 4 10l-22 4-8-21 17-2z"/><path d="M197.5 217.2H96.2c-11.7-.4-12.7-10.2-12.8-13.3l-.3-101.1C83.1 94.1 76 87 67.3 87H16.1C7.4 87 .3 94.1.3 102.8v181.4c0 8.7 7.1 15.8 15.8 15.8h181.4c8.7 0 15.8-7.1 15.8-15.8V233c0-8.7-7.1-15.8-15.8-15.8zM284.7 0H99c-7.1 0-13 5.8-13 13v45.5s0 10.4 11.7 11.7h35c8.6 0 15.6 7 15.6 15.6v53.5c.2 3.2 1.8 10 11.3 10.2H212c8.6 0 15.6 7 15.6 15.6V200s0 10.4 11.5 11.5c.3 0 .6.1.9.2h44.7c7.1 0 13-5.8 13-13V13c0-7.2-5.8-13-13-13z" fill="#3e8ff7"/></g></svg>