<svg xmlns="http://www.w3.org/2000/svg" xmlns:xlink="http://www.w3.org/1999/xlink" viewBox="0 0 975.3 1000"><image width="229" height="220" xlink:href="135309701C4B0AF3.jpg" transform="translate(-1283.758 101.25) scale(5.0847)" overflow="visible"/><g fill="none" stroke-width="77" stroke-linecap="round" stroke-linejoin="round" stroke-miterlimit="10"><path stroke="#358a88" d="M1322.5 477.4l-80.7-80.6 256-256 130.8 130.8L1736.2 164"/><path stroke="#77b6ba" d="M1716.6 375.9l80.6 80.6-256 256-130.8-130.8-107.6 107.6"/></g><path d="M184.1 637.7c-15.2 0-30.4-5.8-42-17.4L17.8 496c-23.2-23.2-23.2-60.8 0-83.9L412.5 17.4c23.2-23.2 60.8-23.2 83.9 0L656.1 177 780 53.1c23.2-23.2 60.8-23.2 83.9 0 23.2 23.2 23.2 60.8 0 83.9L698 302.9c-23.2 23.2-60.8 23.2-83.9 0L454.5 143.3 143.7 454l82.3 82.3c23.2 23.2 23.2 60.8 0 83.9-11.5 11.7-26.7 17.5-41.9 17.5z" fill="#358a88"/><path d="M521.3 1000c-15.2 0-30.4-5.8-42-17.4L319.7 823 195.8 946.9c-23.2 23.2-60.8 23.2-83.9 0s-23.2-60.8 0-83.9l165.9-165.9c23.2-23.2 60.8-23.2 83.9 0l159.6 159.6L832 546l-82.3-82.3c-23.2-23.2-23.2-60.8 0-83.9 23.2-23.2 60.8-23.2 83.9 0L957.9 504c11.1 11.1 17.4 26.2 17.4 42s-6.3 30.8-17.4 42L563.2 982.6c-11.5 11.6-26.7 17.4-41.9 17.4z" fill="#77b6ba"/></svg>