<svg xmlns="http://www.w3.org/2000/svg" viewBox="0 0 815.8 987.5"><style>.st1{fill:#fff}.st2{fill:#f0d25f}.st3{fill:#c68337}.st4{fill:#e4b24f}</style><g id="레이어_2"><path transform="rotate(45.001 1417.467 566.74)" class="st1" d="M1222.7 372h389.5v389.5h-389.5z"/><path transform="rotate(45.001 1417.466 450.859)" class="st2" d="M1222.7 256.1h389.5v389.5h-389.5z"/><path class="st3" d="M1417.5 726.3v115.9l275.4-275.4V450.9z"/><path class="st4" d="M1417.5 842.2V726.3L1142 450.9v115.9z"/><path transform="rotate(-45.001 1417.456 450.891)" class="st2" d="M1250.8 284.2h333.3v333.3h-333.3z"/><path d="M1417.5 235l215.9 215.9-215.9 215.9-215.9-215.9L1417.5 235m0-39.6L1162 450.9l255.5 255.5L1673 450.9l-255.5-255.5z"/><path d="M1442.5 366l84.9 84.9-84.9 84.9V366m-25-60.4v290.5l145.2-145.2-145.2-145.3z"/><path transform="rotate(45.001 407.926 579.532)" class="st1" d="M119.5 291.1h576.9V868H119.5z"/><path transform="rotate(45.001 407.924 407.915)" class="st2" d="M119.5 119.5h576.9v576.9H119.5z"/><path class="st3" d="M407.9 815.8v171.7l407.9-408V407.9z"/><path class="st4" d="M407.9 987.5V815.8L0 407.9v171.6z"/><path transform="rotate(-45.001 407.915 407.924)" class="st2" d="M161.1 161.1h493.6v493.6H161.1z"/><path d="M407.9 88.2l319.7 319.7-319.7 319.7L88.2 407.9 407.9 88.2m0-58.6L29.6 407.9l378.3 378.3 378.3-378.3L407.9 29.6z"/><path d="M444.9 282.2l125.7 125.7-125.7 125.7V282.2m-37-89.4V623L623 407.9 407.9 192.8z"/></g></svg>