<svg version="1.1" id="레이어_1" xmlns="http://www.w3.org/2000/svg" x="0" y="0" viewBox="0 0 50 44.7" xml:space="preserve"><style>.st0{fill:#2e9ad0}</style><circle class="st0" cx="16.7" cy="1.8" r="1.8"/><circle class="st0" cx="29.9" cy="1.8" r="1.8"/><circle class="st0" cx="34.6" cy="12.4" r="1.8"/><circle class="st0" cx="40.7" cy="9.7" r="1.8"/><circle class="st0" cx="39.9" cy="22.3" r="1.8"/><circle class="st0" cx="44.8" cy="22.3" r="1.8"/><circle class="st0" cx="34.6" cy="32.4" r="1.8"/><circle class="st0" cx="47.4" cy="40.7" r="2.6"/><circle class="st0" cx="30" cy="42.9" r="1.8"/><circle class="st0" cx="23.3" cy="33.8" r="1.8"/><circle class="st0" cx="30" cy="22.4" r="1.8"/><circle class="st0" cx="16.7" cy="22.4" r="1.8"/><circle class="st0" cx="12" cy="32.3" r="1.8"/><circle class="st0" cx="5.9" cy="35" r="1.8"/><circle class="st0" cx="6.8" cy="22.4" r="1.8"/><circle class="st0" cx="12" cy="12.4" r="1.8"/><circle class="st0" cx="23.4" cy="10.9" r="1.8"/><circle class="st0" cx="5.9" cy="9.6" r="1.8"/><circle class="st0" cx="1.8" cy="22.2" r="1.8"/><circle class="st0" cx="16.7" cy="42.8" r="1.8"/><path class="st0" d="M30.1 43.3H16.5l-11-8-4.1-12.9L5.6 9.6l11-8h13.6l11 8 4.2 12.9L41 35.3l-.1.1-10.8 7.9zm-13.3-1h12.9l10.4-7.6 4-12.3-4-12.3-10.4-7.5H16.8L6.4 10.2l-4 12.3 4 12.3 10.4 7.5z"/><path class="st0" d="M30 43.8L22.9 34l-6.6-11.4-4.8-10.2 5.1-11.2 7.2 9.4 6.7 11.6 4.8 10.2L30 43.8zm-6.3-10.3l6 8.3 4.3-9.4-4.5-9.8-6.6-11.5-6.1-8-4.2 9.2 4.6 9.8 6.5 11.4z"/><path class="st0" d="M16.6 43.7l-5.2-11.4 4.9-10.2 6.6-11.6L30 1.2l4.9 10.5 6.3-2.6-.8 13.1.1.1-.1.1.7 13.4-7.2-3.1 5.4-10.4-4.7-8.8-4.2 9.1L23.7 34l-7.1 9.7zm-4-11.4l4.3 9.4 6-8.2 6.6-11.4 4.5-9.8L29.7 3l-6 8-6.5 11.5-4.6 9.8zm22.7-.1l4.7 2-.5-10-4.2 8zm0-19.6l4.2 7.9.6-9.8-4.8 1.9z"/><path class="st0" d="M5.4 35.8l.9-13.4-.9-13.3 6.7 2.7 11.2-1.5h.1l11.3 1.6-.1 1-11.3-1.6-11.4 1.6-5.4-2.2.8 11.7-.8 11.8 5.4-2.4 11.4 1.5 11.3-1.4.1 1-11.4 1.4-11.2-1.4z"/><path class="st0" d="M1.9 23v-1l4.9-.1H30l9.9-.1 4.8.2-.1 1-4.7-.2-9.9.1H6.8z"/><path class="st0" d="M11.6 32.6L6.2 22.4l5.4-10.3.8.5-5 9.8 5 9.7z"/><path transform="rotate(-49.969 43.979 37.866)" class="st0" d="M43.5 33.4h1v8.9h-1z"/></svg>