<svg version="1.1" id="레이어_1" xmlns="http://www.w3.org/2000/svg" x="0" y="0" viewBox="0 0 726.6 1000" xml:space="preserve"><style>.st0{fill:#00993e}.st1{fill:#231815}.st2{fill:#0e8c3b}.st3{fill:#457435}.st4{fill:#fff}.st5,.st6{fill:#00993e;stroke:#231815;stroke-linecap:round;stroke-linejoin:round;stroke-miterlimit:10}.st6,.st7,.st9{stroke-width:22}.st7,.st9{fill:none;stroke:#231815;stroke-linejoin:round;stroke-miterlimit:10}.st9{fill:#fff}</style><path class="st0" d="M377.4 169.1c0 89-93.3 158.4-93.3 158.4S193 255.9 193 169.1s91.1-158.4 91.1-158.4 93.3 69.5 93.3 158.4z"/><path class="st1" d="M284.1 328c-.1 0-.2 0-.3-.1-.2-.2-23.1-18.3-45.6-46.7-20.8-26.3-45.7-67.1-45.7-112s24.8-85.8 45.7-112c22.6-28.5 45.4-46.6 45.6-46.7.2-.1.4-.1.6 0 .2.2 23.6 17.7 46.7 45.9 21.3 26 46.8 66.8 46.8 112.9 0 46.1-25.4 86.8-46.8 112.9-23.1 28.2-46.5 45.7-46.7 45.9-.1-.1-.2-.1-.3-.1zm0-316.6c-2.7 2.2-24.1 19.7-45.2 46.4-20.7 26.2-45.4 66.7-45.4 111.4s24.7 85.3 45.4 111.4c21.1 26.6 42.5 44.1 45.2 46.4 2.8-2.1 24.7-19.2 46.3-45.5 21.2-25.9 46.5-66.4 46.5-112.2S351.6 83 330.4 57.1c-21.6-26.6-43.5-43.6-46.3-45.7z"/><path class="st2" d="M284.1 30.3v273.4s80.3-60.8 80.3-134.5-80.3-138.9-80.3-138.9z"/><path class="st3" d="M206 169.1c0 73.8 73.8 134.5 78.1 136.7V30.3c-4.3 4.3-78.1 62.9-78.1 138.8z"/><path class="st0" d="M377.4 169.1c0 89-93.3 158.4-93.3 158.4S193 255.9 193 169.1s91.1-158.4 91.1-158.4 93.3 69.5 93.3 158.4z"/><path class="st1" d="M284.1 328c-.1 0-.2 0-.3-.1-.2-.2-23.1-18.3-45.6-46.7-20.8-26.3-45.7-67.1-45.7-112s24.8-85.8 45.7-112c22.6-28.5 45.4-46.6 45.6-46.7.2-.1.4-.1.6 0 .2.2 23.6 17.7 46.7 45.9 21.3 26 46.8 66.8 46.8 112.9 0 46.1-25.4 86.8-46.8 112.9-23.1 28.2-46.5 45.7-46.7 45.9-.1-.1-.2-.1-.3-.1zm0-316.6c-2.7 2.2-24.1 19.7-45.2 46.4-20.7 26.2-45.4 66.7-45.4 111.4s24.7 85.3 45.4 111.4c21.1 26.6 42.5 44.1 45.2 46.4 2.8-2.1 24.7-19.2 46.3-45.5 21.2-25.9 46.5-66.4 46.5-112.2S351.6 83 330.4 57.1c-21.6-26.6-43.5-43.6-46.3-45.7z"/><path class="st2" d="M284.1 30.3v273.4s80.3-60.8 80.3-134.5-80.3-138.9-80.3-138.9z"/><path class="st3" d="M206 169.1c0 73.8 73.8 134.5 78.1 136.7V30.3c-4.3 4.3-78.1 62.9-78.1 138.8z"/><path class="st0" d="M377.4 169.1c0 89-93.3 158.4-93.3 158.4S193 255.9 193 169.1s91.1-158.4 91.1-158.4 93.3 69.5 93.3 158.4z"/><path class="st1" d="M284.1 338.3c-2.3 0-4.7-.8-6.6-2.3-1-.8-24-19-47.3-48.4-31.3-39.5-47.9-80.5-47.9-118.4s16.6-78.9 47.9-118.4c23.3-29.4 46.4-47.7 47.3-48.4 3.8-3 9.2-3.1 13.1-.2 1 .7 24.7 18.5 48.5 47.6 32.1 39.2 49.1 80.5 49.1 119.4 0 38.9-17 80.2-49.1 119.4-23.9 29.2-47.6 46.9-48.5 47.6-2 1.4-4.3 2.1-6.5 2.1zm.2-313.6c-8.2 7.2-23 21.2-37.6 39.8-19.6 24.8-42.9 63.1-42.9 104.7s23.3 79.9 42.9 104.7c14.6 18.5 29.4 32.5 37.6 39.8 8.4-7 23.5-20.8 38.5-39.1 20-24.5 43.9-62.7 43.9-105.4-.1-69.2-61.8-127.1-82.4-144.5z"/><path class="st2" d="M284.1 30.3v273.4s80.3-60.8 80.3-134.5-80.3-138.9-80.3-138.9z"/><path class="st3" d="M206 169.1c0 73.8 73.8 134.5 78.1 136.7V30.3c-4.3 4.3-78.1 62.9-78.1 138.8z"/><path class="st0" d="M670.3 514.1c-36.9 21.7-91.1 0-91.1 0s6.5-58.6 45.6-80.3c36.9-21.7 91.1 0 91.1 0s-8.7 56.5-45.6 80.3z"/><path class="st1" d="M630.2 534.5c-28.5 0-53.5-9.8-55-10.4-4.5-1.8-7.2-6.4-6.7-11.2.3-2.6 7.6-64.3 50.9-88.4 41-24 98-1.6 100.5-.6 4.6 1.9 7.4 6.7 6.6 11.6-.4 2.5-9.9 61.5-50.4 87.7-.1.1-.3.2-.4.2-14.1 8.4-30.3 11.1-45.5 11.1zm40.1-20.4zm-79-7.2c15.4 4.6 49.3 12.1 73.3-1.9 24.1-15.8 34.8-48.3 38.7-64-15.6-4.6-49.3-11.9-73.2 2.1-.1 0-.2.1-.2.1-25.5 14.3-35.3 47.9-38.6 63.7z"/><path class="st2" d="M707.2 438.2l-119.3 67.3s45.6 19.5 78.1 0c34.7-17.4 41.2-67.3 41.2-67.3z"/><path class="st3" d="M626.7 438.2c-32.5 17.4-39.1 65.1-39.1 67.3L707 438.2c-2.1-2.2-47.7-19.5-80.3 0z"/><path class="st1" d="M284.1 948c-1.8 0-3.7-.5-5.3-1.4L57.5 820.7c-3.4-1.9-5.4-5.5-5.4-9.3v-256c0-3.9 2.1-7.4 5.4-9.3l221.3-125.8c3.3-1.9 7.4-1.9 10.7 0L508.6 546c3.3 1.9 5.4 5.5 5.4 9.3v256c0 3.8-2.1 7.4-5.4 9.3l-219.2 126c-1.6.9-3.5 1.4-5.3 1.4zM73.5 805.1L284 924.8l208.4-119.7V561.6L284.1 441.9 73.5 561.6v243.5z"/><path transform="rotate(-60.376 173.432 620.454)" class="st1" d="M162.7 493.2h21.5v254.6h-21.5z"/><path class="st1" d="M284.1 698.5c-5.9 0-10.7-4.8-10.7-10.7V169.1c0-5.9 4.8-10.7 10.7-10.7 5.9 0 10.7 4.8 10.7 10.7v518.6c0 6-4.8 10.8-10.7 10.8z"/><path class="st1" d="M284.1 698.5c-3.7 0-7.2-1.9-9.3-5.3-3-5.1-1.3-11.7 3.8-14.7l351.5-208.3c5.1-3 11.7-1.3 14.7 3.8s1.3 11.7-3.8 14.7L289.6 697c-1.7 1-3.6 1.5-5.5 1.5z"/><path transform="rotate(-60.561 393.676 749.55)" class="st1" d="M382.9 623.7h21.5v251.6h-21.5z"/><path class="st1" d="M273.3 687.7h21.5v249.5h-21.5z"/><path transform="rotate(-30.049 173.419 747.424)" class="st1" d="M45.6 736.6h255.7v21.5H45.6z"/><circle class="st4" cx="284.1" cy="683.4" r="52.1"/><path class="st1" d="M284.1 746.2c-34.6 0-62.8-28.2-62.8-62.8 0-34.6 28.2-62.8 62.8-62.8s62.8 28.2 62.8 62.8c0 34.6-28.2 62.8-62.8 62.8zm0-104.1c-22.8 0-41.3 18.5-41.3 41.3 0 22.8 18.5 41.3 41.3 41.3s41.3-18.5 41.3-41.3c0-22.8-18.5-41.3-41.3-41.3z"/><circle class="st4" cx="284.1" cy="429.5" r="52.1"/><path class="st1" d="M284.1 492.3c-34.6 0-62.8-28.2-62.8-62.8s28.2-62.8 62.8-62.8 62.8 28.2 62.8 62.8-28.2 62.8-62.8 62.8zm0-104.1c-22.8 0-41.3 18.5-41.3 41.3 0 22.8 18.5 41.3 41.3 41.3s41.3-18.5 41.3-41.3c0-22.8-18.5-41.3-41.3-41.3z"/><circle class="st4" cx="503.2" cy="557.5" r="52.1"/><path class="st1" d="M503.2 620.4c-34.6 0-62.8-28.2-62.8-62.8 0-34.6 28.2-62.8 62.8-62.8S566 523 566 557.6c.1 34.6-28.1 62.8-62.8 62.8zm0-104.2c-22.8 0-41.3 18.5-41.3 41.3 0 22.8 18.5 41.3 41.3 41.3 22.8 0 41.3-18.5 41.3-41.3.1-22.8-18.5-41.3-41.3-41.3z"/><circle class="st4" cx="503.2" cy="811.4" r="52.1"/><path class="st1" d="M503.2 874.2c-34.6 0-62.8-28.2-62.8-62.8 0-34.6 28.2-62.8 62.8-62.8s62.8 28.2 62.8 62.8c.1 34.6-28.1 62.8-62.8 62.8zm0-104.1c-22.8 0-41.3 18.5-41.3 41.3 0 22.8 18.5 41.3 41.3 41.3 22.8 0 41.3-18.5 41.3-41.3.1-22.8-18.5-41.3-41.3-41.3z"/><circle class="st4" cx="284.1" cy="937.3" r="52.1"/><path class="st1" d="M284.1 1000.1c-34.6 0-62.8-28.2-62.8-62.8 0-34.6 28.2-62.8 62.8-62.8s62.8 28.2 62.8 62.8c0 34.6-28.2 62.8-62.8 62.8zm0-104.2c-22.8 0-41.3 18.5-41.3 41.3 0 22.8 18.5 41.3 41.3 41.3s41.3-18.5 41.3-41.3c0-22.7-18.5-41.3-41.3-41.3z"/><circle class="st4" cx="62.8" cy="811.4" r="52.1"/><path class="st1" d="M62.8 874.2C28.2 874.2 0 846 0 811.4c0-34.6 28.2-62.8 62.8-62.8s62.8 28.2 62.8 62.8c0 34.6-28.2 62.8-62.8 62.8zm0-104.1c-22.8 0-41.3 18.5-41.3 41.3 0 22.8 18.5 41.3 41.3 41.3s41.3-18.5 41.3-41.3c0-22.8-18.5-41.3-41.3-41.3z"/><circle class="st4" cx="62.8" cy="557.5" r="52.1"/><path class="st1" d="M62.8 620.4C28.2 620.4 0 592.2 0 557.6c0-34.6 28.2-62.8 62.8-62.8s62.8 28.2 62.8 62.8c0 34.6-28.2 62.8-62.8 62.8zm0-104.2c-22.8 0-41.3 18.5-41.3 41.3 0 22.8 18.5 41.3 41.3 41.3s41.3-18.5 41.3-41.3c0-22.8-18.5-41.3-41.3-41.3z"/><path class="st5" d="M-456 162.1c0 91-95.5 162.1-95.5 162.1s-93.3-73.3-93.3-162.1S-551.5 0-551.5 0-456 71.1-456 162.1z"/><path class="st2" d="M-551.5 20v279.8s82.2-62.2 82.2-137.7S-551.5 20-551.5 20z"/><path class="st3" d="M-631.4 162.1c0 75.5 75.5 137.7 79.9 139.9V20c-4.5 4.4-79.9 64.4-79.9 142.1z"/><path class="st5" d="M-456 162.1c0 91-95.5 162.1-95.5 162.1s-93.3-73.3-93.3-162.1S-551.5 0-551.5 0-456 71.1-456 162.1z"/><path class="st2" d="M-551.5 20v279.8s82.2-62.2 82.2-137.7S-551.5 20-551.5 20z"/><path class="st3" d="M-631.4 162.1c0 75.5 75.5 137.7 79.9 139.9V20c-4.5 4.4-79.9 64.4-79.9 142.1z"/><path class="st6" d="M-456 162.1c0 91-95.5 162.1-95.5 162.1s-93.3-73.3-93.3-162.1S-551.5 0-551.5 0-456 71.1-456 162.1z"/><path class="st2" d="M-551.5 20v279.8s82.2-62.2 82.2-137.7S-551.5 20-551.5 20z"/><path class="st3" d="M-631.4 162.1c0 75.5 75.5 137.7 79.9 139.9V20c-4.5 4.4-79.9 64.4-79.9 142.1z"/><path class="st6" d="M-156.3 515.1c-37.7 22.2-93.3 0-93.3 0s6.7-60 46.6-82.2c37.7-22.2 93.3 0 93.3 0s-8.8 57.8-46.6 82.2z"/><path class="st2" d="M-118.5 437.4l-122.1 68.8s46.6 20 79.9 0c35.5-17.7 42.2-68.8 42.2-68.8z"/><path class="st3" d="M-200.7 439.6c-33.3 17.8-40 66.6-40 68.8l122.1-68.8c-2.2-2.2-48.8-19.9-82.1 0z"/><path class="st7" d="M-778 557.3v262l226.5 128.8 224.2-128.8v-262l-224.2-128.8zm0 2.2l226.5 128.8"/><path d="M-551.5 162.1v530.7m359.7-213.2l-359.7 213.2" fill="none" stroke-linecap="round" stroke="#231815" stroke-width="22" stroke-linejoin="round" stroke-miterlimit="10"/><path class="st7" d="M-327.3 819.3l-224.2-126.5m0 255.3V692.8M-778 819.3l226.5-131"/><circle class="st9" cx="-551.5" cy="688.3" r="53.3"/><circle class="st9" cx="-551.5" cy="428.5" r="53.3"/><circle class="st9" cx="-327.3" cy="559.5" r="53.3"/><circle class="st9" cx="-327.3" cy="819.3" r="53.3"/><circle class="st9" cx="-551.5" cy="948.1" r="53.3"/><circle class="st9" cx="-778" cy="819.3" r="53.3"/><circle class="st9" cx="-778" cy="559.5" r="53.3"/></svg>