<svg xmlns="http://www.w3.org/2000/svg" viewBox="0 0 1000 1000"><circle cx="500" cy="500" r="500" fill="#37aee2"/><path fill="#afcbde" d="M471 577.4l-54.9 19.4-6.4 119.3-6.5 6.5 93.6-80.7v-51.6z"/><path d="M241.9 525.8s-32.3 0-35.5-22.6c0-19.4 35.5-25.8 35.5-25.8L706.5 300s12.9-6.5 25.8 6.5c12.9 12.9 6.5 32.3 6.5 32.3l-80.6 387.1s3.2 12.9-16.1 19.4C622.6 751.6 600 729 600 729L416.1 596.8l-64.5-35.5-109.7-35.5z" fill="#fff"/><path d="M351.6 561.3s280.6-187.1 290.3-180.6c6.5 6.5-6.5 16.1-6.5 16.1L416 596.8l-6.5 119.4s-6.5 19.4-19.4 0c-15.9-19.4-38.5-154.9-38.5-154.9z" fill="#c8daea"/></svg>