<svg xmlns="http://www.w3.org/2000/svg" viewBox="0 0 50 31.2"><path d="M0 15c4.5-5 9.1-9.9 13.7-15 3.8 4.1 7.5 8 11.3 12 3.7-4 7.4-8 11.2-12C37.7 1.6 49.6 14.7 50 15.3v.9c-4.6 5-9.2 9.9-13.9 15-3.7-4-7.4-8-11.1-12.1-3.7 4-7.4 8-11.2 12C13.6 30.9.3 16.4 0 15.9V15zm13.8 9c2.7-2.9 5.4-5.8 8-8.6l-8-8.3c-2.4 2.6-4.7 5-7 7.5-.5.5-.7 1.2-.1 1.8 2.4 2.5 4.7 5 7.1 7.6zm22.4-.1c2.2-2.4 4.4-4.6 6.4-7 .9-1 .8-1.8-.1-2.9-.7-.8-1.5-1.7-2.2-2.5-1.4-1.5-2.8-3-4.3-4.5-2.7 2.9-5.3 5.7-7.9 8.5 2.8 2.9 5.4 5.6 8.1 8.4z"/></svg>