<svg xmlns="http://www.w3.org/2000/svg" viewBox="0 0 51 78"><path d="M45.4 27.2c-1 1.6-2.8 2.9-4.9 3.1-4.5.3-7.6-1.2-8.8-2.9 0 0 1.4.2 2.6-.3 1.2-.5 2.8-1.7 4.3-1.9 5.9-.5 11.3 4 11.8 9.9s-4 11.3-9.9 11.8m-5.6-36.7c1 1.6 1.2 4 .2 5.9-1.9 4.2-4.9 5.9-6.9 6.2 0 0 1-1.2 1-2.4 0-1.4-.2-3.1.3-4.7 2.6-5.5 9-7.8 14.4-5.4s7.8 9 5.4 14.4M15.1 10.7c1.9 0 4 1 5.2 2.8 2.8 3.8 2.8 7.3 1.9 9 0 0-.5-1.4-1.6-1.9-1.2-.5-2.9-1.4-3.8-2.8-3.4-4.8-2.4-11.6 2.6-15.1S31 .3 34.5 5.3M5.6 28.2c1-1.6 2.8-2.9 4.9-3.1 4.5-.3 7.6 1.2 8.8 2.9 0 0-1.4-.2-2.6.3-1.2.5-2.8 1.7-4.3 1.9-5.9.5-11.3-4-11.8-9.9S4.6 9 10.5 8.5M16.1 45c-1-1.6-1.2-4-.2-5.9 1.9-4.2 4.9-5.9 6.9-6.2 0 0-1 1.2-1 2.4s.2 3.1-.3 4.7c-2.6 5.5-9 7.8-14.4 5.4-5.5-2.6-7.8-9-5.4-14.4m34.5 13.9c-1.9 0-4.3-1.2-5.5-3.1-2.8-3.8-2.8-7.3-1.9-9 0 0 .5 1.4 1.6 1.9 1.2.5 2.9 1.4 3.8 2.8 3.5 4.9 2.1 9.7-.3 12.7L20.1 61.5" stroke-linejoin="round" fill="none" stroke="#000" stroke-width=".75" stroke-miterlimit="10"/><path d="M16.3 47.8l7.1 8m6.4 2.1l-9.5 7.6m9.5-3.6l-9.5 7.8m9.5-3.2L16.5 77.3h-4m14.9-5.2l6.4 5.2h3.8" stroke-linecap="round" fill="none" stroke="#000" stroke-width=".75" stroke-miterlimit="10"/></svg>