<svg id="레이어_1" data-name="레이어 1" xmlns="http://www.w3.org/2000/svg" viewBox="0 0 283.87 38"><defs><style>.cls-1{fill:#231815}</style></defs><path class="cls-1" d="M26.56 37.92L3 12.8v25.12H0V0h3v11.62h29.13v3H8.35l21.92 23.3h-3.71z"/><path class="cls-1" d="M577.24 402.71v-26.3h32.14v26.3zm3-3h26.13v-20.3h-26.12z" transform="translate(-541.01 -364.79)"/><path class="cls-1" d="M72.71 11.67h3v26.25h-3z"/><path class="cls-1" d="M664.24 402.71v-3h32.13v3zm0-11.62v-3h32.13v3zm0-11.68v-3h32.13v3z" transform="translate(-541.01 -364.79)"/><path class="cls-1" d="M160.07 37.92v-3h29.14V26.3h-29.14V11.62h32.14v3h-29.14v8.68h29.14v14.62h-32.14z"/><path class="cls-1" d="M768.51 402.71v-26.3h32.13v26.3zm3-3h26.13v-20.3h-26.13z" transform="translate(-541.01 -364.79)"/><path class="cls-1" d="M262.76 37.92v-26.3h21.11v3h-18.11v23.3h-3zm-54.75.08V14.62h-12.68v-3h29.05v3h-13.37V38h-3zm-128.86-.08v-26.3h3.02v3l-.01 1.42v21.88h-3.01zm3.02-26.3h20.45v3H82.17zm20.45 0h3v3h-3zm0 3h3v13.32h-3zm-13.3 6.98h3v13.32h-3zm0 13.32h26.29v3H89.32z"/><path class="cls-1" d="M115.52 11.62h3v26.3h-3z"/></svg>