<svg version="1.1" id="레이어_1" xmlns="http://www.w3.org/2000/svg" x="0" y="0" viewBox="0 0 150 100.33" xml:space="preserve"><style>.st0{fill:#94bcd8}.st1{fill:#3b80ae}.st3{fill:#231815}</style><path class="st0" d="M16.43 0v64.84h12.99V12.99h.02V0z"/><path class="st1" d="M29.44 0h51.82v12.99H29.44zm64.82 0h-13v12.99h13z"/><path d="M81.27 12.99h12.99v29.64H81.27zm-29.6 9.22h12.99v29.64H51.67z" fill="#162b50"/><path class="st1" d="M64.66 51.85H51.67v12.99h64.81V51.85z"/><path class="st0" d="M116.51 0v51.85h-.03v12.99h.03V39.5v25.34h12.98V0z"/><path class="st3" d="M14.04 100.29L1.59 87.02v13.27H0V80.26h1.59v6.14h15.39v1.58H4.41L16 100.29zm5.11 0V86.4h16.98v13.9H19.15zm1.58-1.58h13.81V87.98H20.73v10.73zm17.69-12.29h1.59v13.87h-1.59zm26.7 13.87V98.7H82.1v1.59H65.12zm0-6.14v-1.59H82.1v1.59H65.12zm0-6.17V86.4H82.1v1.59H65.12zm19.46 12.31v-1.58h15.4v-4.56h-15.4V86.4h16.98v1.58H86.17v4.58h15.39v7.73zm35.63 0V86.4h16.98v13.9h-16.98zm1.59-1.58h13.81V87.98H121.8v10.73zm17.04 1.58V86.4H150v1.58h-9.57v12.31zm-28.93.04V87.98h-6.7V86.4h15.35v1.58h-7.06v12.35zm-68.08-.04V86.4h1.59v1.58l-.01.75v11.56zm1.59-13.89h10.81v1.59H43.42z"/><path class="st3" d="M54.22 86.4h1.59v1.59h-1.59z"/><path class="st3" d="M54.22 87.98h1.59v7.04h-1.59zm-7.02 3.69h1.59v7.04H47.2z"/><path class="st3" d="M47.2 98.71h13.89v1.59H47.2z"/><path class="st3" d="M61.04 86.4h1.59v13.9h-1.59z"/></svg>