<svg version="1.1" id="레이어_1" xmlns="http://www.w3.org/2000/svg" x="0" y="0" viewBox="0 0 100 11.8" xml:space="preserve"><style>.st0{fill:#94bcd8}.st1{fill:#3b80ae}</style><path class="st0" d="M29.18 3.63v8.15h1.63V3.63z"/><path class="st1" d="M30.81 3.63h6.52v1.63h-6.52zm8.16 0h-1.64v1.63h1.64z"/><path d="M37.33 5.26h1.63v3.73h-1.63zm-3.72 1.16h1.63v3.73h-1.63z" fill="#162b50"/><path class="st1" d="M35.24 10.15h-1.63v1.63h8.15v-1.63z"/><path class="st0" d="M41.76 3.63v8.15V8.6v3.18h1.64V3.63z"/><path d="M8.25 11.78L.93 3.98v7.8H0V0h.93v3.61h9.05v.93H2.59l6.81 7.24zm4.38 0V3.61h9.98v8.17h-9.98zm.93-.93h8.12v-6.3h-8.12v6.3zm11.7-7.24h.93v8.15h-.93zm20.91 8.17v-.93h9.98v.93h-9.98zm0-3.61v-.93h9.98v.93h-9.98zm0-3.63v-.93h9.98v.93h-9.98zm12.63 7.24v-.93h9.05V8.17H58.8V3.61h9.99v.93h-9.05v2.7h9.05v4.54zm22.78 0V3.61h9.98v8.17h-9.98zm.93-.93h8.12v-6.3h-8.12v6.3zm10.93.93V3.61H100v.93h-5.63v7.24zm-18.83.02V4.54h-3.94v-.93h9.02v.93h-4.15v7.26z" fill="#383231"/></svg>