<svg xmlns="http://www.w3.org/2000/svg" viewBox="0 0 1000 582"><linearGradient id="a" gradientUnits="userSpaceOnUse" x1="157.953" y1="91.469" x2="830.907" y2="449.176"><stop offset="0" stop-color="#35a6d6"/><stop offset=".458" stop-color="#064a95"/><stop offset=".51" stop-color="#04408f"/><stop offset=".688" stop-color="#1d3e8d"/><stop offset=".941" stop-color="#3e3589"/><stop offset=".997" stop-color="#438"/></linearGradient><path d="M758.5 310.1c-6.7-.8-12.8 4-13.5 10.7-5.9 50.3-26.9 96.9-60.7 134.9-4.5 5-4 12.7 1 17.2 2.3 2.1 5.2 3.1 8.1 3.1 3.4 0 6.7-1.4 9.1-4.1 37.1-41.7 60.2-93 66.7-148.2.8-6.7-4-12.8-10.7-13.6z" fill="url(#a)"/><linearGradient id="b" gradientUnits="userSpaceOnUse" x1="146.795" y1="112.461" x2="819.748" y2="470.168"><stop offset="0" stop-color="#35a6d6"/><stop offset=".458" stop-color="#064a95"/><stop offset=".51" stop-color="#04408f"/><stop offset=".688" stop-color="#1d3e8d"/><stop offset=".941" stop-color="#3e3589"/><stop offset=".997" stop-color="#438"/></linearGradient><path d="M321.4 103.8c-4.9-4.7-12.6-4.5-17.2.4-38.8 40.5-63.8 91.1-72.2 146.3-1 6.7 3.6 12.9 10.2 13.9.6.1 1.2.1 1.9.1 5.9 0 11.1-4.3 12-10.4 7.7-50.2 30.4-96.2 65.7-133.1 4.6-4.9 4.4-12.6-.4-17.2z" fill="url(#b)"/><linearGradient id="c" gradientUnits="userSpaceOnUse" x1="150.734" y1="105.05" x2="823.687" y2="462.757"><stop offset="0" stop-color="#35a6d6"/><stop offset=".458" stop-color="#064a95"/><stop offset=".51" stop-color="#04408f"/><stop offset=".688" stop-color="#1d3e8d"/><stop offset=".941" stop-color="#3e3589"/><stop offset=".997" stop-color="#438"/></linearGradient><path d="M500.3 0C180.3 0 .5 249.8.5 290.5c0 25.8 175 291.5 499.7 291.5 323.6 0 499.7-265.7 499.7-291.5C1000 255.3 816.5 0 500.3 0zm329 420.1c-43.8 34.1-91.2 61.2-141 80.5-9.3 3.6-18.7 6.9-28.2 10 .7-.5 1.3-1 2-1.4 5.4-4 6.5-11.7 2.5-17.1-4-5.4-11.7-6.5-17.1-2.5-28.5 21.3-60.5 35.9-94.6 43.3-17.4 1.7-34.9 2.6-52.6 2.6-17.9 0-35.6-.9-53.2-2.7-42.1-9.2-81.3-29.4-113.7-59-39.5-36.1-65.9-83.5-75.8-135.4 7.4-4.6 12.3-12.8 12.3-22.1 0-14.3-11.6-26-26-26-14.3 0-26 11.6-26 26 0 10.4 6.2 19.5 15.1 23.6 10.4 58.2 39.7 111.5 83.9 151.9 7.2 6.6 14.8 12.8 22.6 18.5-9.3-3-18.6-6.3-27.7-9.8-49.8-19.3-97.2-46.3-141-80.5-42.8-33.4-73-66.6-90.8-88.6-15.8-19.5-25.3-34.3-30.2-42.9 4.4-8.7 13.5-23.7 29.7-43.7 17.3-21.4 47.1-53.8 91-87 43.6-33 91.3-59.1 141.5-77.8 11-4.1 22-7.8 33.2-11.1-.2.1-.4.3-.6.4-5.5 3.9-6.9 11.5-3 17 3.9 5.5 11.5 6.9 17 3 30.9-21.6 65.9-35.7 102.8-41.4 12.9-.9 25.8-1.4 38.8-1.4 12.6 0 25.2.5 37.7 1.3 45.1 7 87.6 26.5 122.5 56.5 40.2 34.5 68.2 80.9 79.9 132-5 4.7-8.2 11.5-8.2 18.9 0 14.3 11.6 26 26 26 14.3 0 26-11.6 26-26 0-12.3-8.6-22.7-20.2-25.3-13-55.8-43.7-106.5-87.6-144.2-6.5-5.6-13.2-10.8-20.1-15.7 10 3.1 19.9 6.5 29.7 10.2 49.9 18.8 97.5 45.3 141.5 78.6 70.3 53.2 110 107.7 122.7 130.3-5.1 8.8-14.5 23.2-29.8 42.1-17.8 22.2-48.1 55.4-91 88.9z" fill="url(#c)"/><linearGradient id="d" gradientUnits="userSpaceOnUse" x1="147.202" y1="111.695" x2="820.155" y2="469.402"><stop offset="0" stop-color="#35a6d6"/><stop offset=".458" stop-color="#064a95"/><stop offset=".51" stop-color="#04408f"/><stop offset=".688" stop-color="#1d3e8d"/><stop offset=".941" stop-color="#3e3589"/><stop offset=".997" stop-color="#438"/></linearGradient><path d="M571.4 230.6c0-38.6-31.3-69.8-69.8-69.8-38.6 0-69.8 31.3-69.8 69.8 0 24.3 12.4 45.6 31.1 58.1L442 406.2c0 9.8 8.1 17.9 17.9 17.9h83.7c9.8 0 17.9-8.1 17.9-17.9l-21.3-117.4c18.8-12.6 31.2-33.9 31.2-58.2z" fill="url(#d)"/><linearGradient id="e" gradientUnits="userSpaceOnUse" x1="150.317" y1="105.834" x2="823.271" y2="463.541"><stop offset="0" stop-color="#35a6d6"/><stop offset=".458" stop-color="#064a95"/><stop offset=".51" stop-color="#04408f"/><stop offset=".688" stop-color="#1d3e8d"/><stop offset=".941" stop-color="#3e3589"/><stop offset=".997" stop-color="#438"/></linearGradient><path d="M498.7 72.3C378.1 72.3 280 170.4 280 291s98.1 218.6 218.6 218.6c120.6 0 218.7-98.1 218.7-218.6 0-120.6-98.1-218.7-218.6-218.7zm0 412.9c-107.1 0-194.3-87.1-194.3-194.3 0-107.1 87.1-194.3 194.3-194.3 107.1 0 194.3 87.1 194.3 194.3-.1 107.2-87.2 194.3-194.3 194.3z" fill="url(#e)"/><path d="M1527.6 748.9c-62.6 0-123.6-11.5-181.1-34.3-47.5-18.8-92.5-45-133.9-78.1-71.4-57.1-108.7-116.1-114.4-130.5 1.8-6.2 9.9-23 28.4-46.9 15.7-20.4 43.1-51.4 84.5-83.6 64.1-50 171-109.5 316.4-109.5 142.3 0 249.1 59.9 313.6 110.2 41.3 32.2 69.4 63.3 85.7 83.7 18.6 23.4 27.4 39.9 29.8 46.4-6.2 15-43.6 73.4-114.6 130.1-41.4 33.1-86.5 59.3-133.9 78.1-57.3 22.9-118.1 34.4-180.5 34.4z" fill="#fff"/><path d="M1527.6 287.1c57.5 0 113.8 10.3 167.5 30.5 45 17 87.9 40.8 127.6 70.9 63.4 48 99.2 97.1 110.6 117.5-4.6 7.9-13.1 21-26.9 37.9-16.1 19.8-43.4 49.7-82.1 79.9-39.5 30.8-82.3 55.2-127.2 72.6-54 20.9-111 31.5-169.5 31.5-58.8 0-115.9-10.6-170-31.5-44.9-17.4-87.7-41.8-127.1-72.6-38.6-30.2-65.8-60.1-81.9-79.9-14.2-17.6-22.8-30.9-27.2-38.7 4-7.8 12.1-21.3 26.8-39.4 15.6-19.3 42.5-48.5 82-78.4 39.4-29.7 82.3-53.3 127.6-70.1 54.1-20 111.2-30.2 169.8-30.2m0-42c-288.5 0-450.6 225.2-450.6 261.9 0 23.3 157.8 262.9 450.6 262.9 291.8 0 450.6-239.6 450.6-262.9 0-31.6-165.5-261.9-450.6-261.9z"/><path d="M1666.9 695.4c-38.9 29.1-87.3 46.3-139.6 46.3-121.5 0-221.3-92.8-232.5-211.3m464.4 5.3c-5.7 48.7-26.4 92.8-57.4 127.6m-308.2-346.6c37.9-26.5 83.9-42 133.6-42 116.1 0 212.4 84.7 230.5 195.7m-461.2 2.2c7.4-48.5 29.8-92.1 62.2-126" fill="none" stroke="#000" stroke-width="22" stroke-linecap="round" stroke-miterlimit="10"/><circle cx="1760.2" cy="475.4" r="23.4"/><circle cx="1296.5" cy="530.3" r="23.4"/><path d="M1560.7 489.2l22.1 122.1c0 8.9-7.3 16.1-16.1 16.1h-75.5c-8.9 0-16.1-7.3-16.1-16.1l21-118.3 64.6-3.8z"/><circle cx="1528.8" cy="453.1" r="62.9"/><circle cx="1526.2" cy="507.5" r="186.2" fill="none" stroke="#000" stroke-width="22" stroke-miterlimit="10"/></svg>