<svg xmlns="http://www.w3.org/2000/svg" viewBox="0 0 200 200"><style>.st0{display:none}.st1{display:inline}.st5{fill:#fff}.st7{fill:#111}</style><g id="레이어_2" class="st0"><g class="st1"><path fill="#09798f" d="M29.4 12.3L58.5 0l112.1 52.7-28.3 13.1z"/><path fill="#49c1bf" d="M142.3 65.8L29.4 12.3v29.2l77.8 37.4-78.4 38.3v29.1L142.1 200v-30.1l-76.7-35.7 76.8-38.5z"/><path d="M142.3 95.8l28.5-13.7-.2-29.4-28.3 13.1m-.1 44.1l-.1 90.1 29.1-12.2-.4-90.4z" fill="#298e9a"/></g><g class="st1"><path class="st5" d="M274.6 12.3L303.5.1l111.9 52.6-28.1 13z"/><path d="M303.5.2l111.7 52.5-27.9 12.9-112.5-53.3L303.5.2m0-.2l-29.2 12.3 112.9 53.5 28.4-13.1L303.5 0z"/><path class="st5" d="M274.5 41.4V12.5l112.7 53.3-.1 29.8z"/><path d="M274.6 12.7L387.1 66v29.5l-112.4-54V12.7m-.3-.4v29.2l112.8 54.2V65.8L274.4 12.3z"/><path class="st5" d="M273.9 146.3v-29L387 169.9v29.9z"/><path d="M274 117.5L386.9 170v29.7L274 146.2v-28.7m-.2-.3v29.2L387.1 200v-30.1l-113.3-52.7z"/><path class="st5" d="M275 136.2l-1.1-19L368 71.3l14.5 2.2 1.1 8.9 3.5 13.3-87.5 43.8z"/><path d="M368 71.4l14.4 2.2 1.1 8.8 3.5 13.1-87.4 43.8-24.4-3.3-1.1-18.8L368 71.4m0-.2l-94.2 46 1.1 19.1 24.7 3.4 87.6-43.9-3.5-13.3-1.1-9-14.6-2.3z"/><path class="st5" d="M387.4 65.8l28.1-12.9.2 29.2-28.4 13.5z"/><path d="M415.4 53l.1 29-28.1 13.5V65.9l28-12.9m.2-.3l-28.4 13.1v33.6-3.6l28.5-13.7-.1-29.4z"/><path class="st5" d="M387.3 110l28.4-12.4.4 90.2-28.9 12z"/><path d="M415.6 97.7l.4 90-28.7 12 .1-89.6 28.2-12.4m.2-.3l-28.6 12.5-.1 90.1 29.1-12.2-.4-90.4z"/></g></g><g id="레이어_4"><circle cx="100" cy="100" r="100" fill="#f7931a"/><path class="st5" d="M143.3 89.3c2.9-11.4-.8-20.4-15.9-26.7-4.5-1.9-5.5-2.1-5.5-2.1l4.7-17.9-11.1-2.9-4.5 17.5-8.7-2.1 4.3-17.5-10.9-2.7-4.5 17.7L69 47.1 66.1 59l8.5 2s5.7 1.3 4.5 7.3c-1.3 6-12.1 48.1-12.1 48.1s-.4 3.2-3.9 3.1c-3.5-.1-9-2.2-9-2.2l-5.6 12.5 22.1 5.7-4.5 18.3 10.9 2.8 4.7-18.1 8.5 2.3-4.4 17.8 10.8 2.9 4.9-18.1s31 8.8 38.3-14.3c6.3-19.1-4.7-24.1-9.7-27.3 0 .1 10.4-1.1 13.2-12.5zm-24.7 32.8c-4.1 11.3-25.1 5.2-25.1 5.2l-8.3-1.9 6-24.3s.2-.2 9.3 2.3 22.2 7.5 18.1 18.7zm3.5-35.8c-3.5 10.7-20.3 5.8-20.3 5.8L94 90.2l5.5-22.1 6.8 1.7c6.5 1.7 19.4 5.8 15.8 16.5z"/></g><g id="레이어_6" class="st0"><g class="st1"><circle cx="83.8" cy="72.5" r="13.2"/><circle cx="115" cy="72.5" r="13.2"/><circle cx="130.5" cy="100" r="13.2"/><circle cx="115" cy="126.3" r="13.2"/><circle cx="83.8" cy="127.5" r="13.2"/><circle cx="68.3" cy="100" r="13.2"/><circle cx="52.7" cy="72.5" r="8.4"/><circle cx="99.4" cy="44.9" r="8.4"/><circle cx="146.1" cy="72.5" r="8.4"/><circle cx="146.1" cy="126.3" r="8.4"/><circle cx="99.4" cy="153.9" r="8.4"/><circle cx="52.7" cy="126.3" r="8.4"/><circle cx="29.9" cy="100" r="7.2"/><circle cx="63.5" cy="38.9" r="7.2"/><circle cx="134.1" cy="38.9" r="7.2"/><circle cx="168.9" cy="100" r="7.2"/><circle cx="134.1" cy="161.1" r="7.2"/><circle cx="64.7" cy="161.1" r="7.2"/><circle cx="25.1" cy="143.1" r="6"/><circle cx="25.1" cy="56.9" r="6"/><circle cx="99.4" cy="13.8" r="6"/><circle cx="173.7" cy="56.9" r="6"/><circle cx="173.7" cy="143.1" r="6"/><circle cx="99.4" cy="186.2" r="6"/><circle cx="195.2" cy="100" r="4.8"/><circle cx="147.3" cy="181.4" r="4.8"/><circle cx="51.5" cy="182.6" r="4.8"/><circle cx="4.8" cy="100" r="4.8"/><circle cx="51.5" cy="17.4" r="4.8"/><circle cx="147.3" cy="17.4" r="4.8"/></g></g><g id="레이어_8" class="st0"><g class="st1"><circle class="st7" cx="100.5" cy="12.8" r="12.8"/><circle class="st7" cx="100.5" cy="55.9" r="12.8"/><circle cx="100.5" cy="100" r="12.8" fill="#ce51a4"/><circle class="st7" cx="100.5" cy="143.1" r="12.8"/><circle class="st7" cx="100.5" cy="187.2" r="12.8"/><circle class="st7" cx="140" cy="33.3" r="12.8"/><circle class="st7" cx="140" cy="77.4" r="12.8"/><circle class="st7" cx="140" cy="120.5" r="12.8"/><circle class="st7" cx="140" cy="164.6" r="12.8"/><circle class="st7" cx="62.1" cy="33.3" r="12.8"/><circle class="st7" cx="62.1" cy="77.4" r="12.8"/><circle class="st7" cx="62.1" cy="120.5" r="12.8"/><circle class="st7" cx="62.1" cy="164.6" r="12.8"/><circle class="st7" cx="177.9" cy="55.9" r="12.8"/><circle class="st7" cx="177.9" cy="99" r="12.8"/><circle class="st7" cx="177.9" cy="143.1" r="12.8"/><circle class="st7" cx="22.1" cy="55.9" r="12.8"/><circle class="st7" cx="22.1" cy="99" r="12.8"/><circle class="st7" cx="22.1" cy="143.1" r="12.8"/></g></g></svg>