<svg xmlns="http://www.w3.org/2000/svg" xmlns:xlink="http://www.w3.org/1999/xlink" viewBox="0 0 100 100"><style>.st0{display:none}.st1{display:inline}.st2{fill:none}</style><g id="레이어_1"><image width="236" height="758" xlink:href="스크린샷 2019-03-18 오후 2.13.02.png" transform="translate(-39 5) scale(.1148)" overflow="visible"/><image width="171" height="165" xlink:href="69C1424469150014.png" transform="translate(-4 112) scale(.1148)" overflow="visible"/></g><g id="레이어_3" class="st0"><g class="st1"><circle cx="77" cy="23.4" r="15.8"/><path d="M92.8 57.4V98c0 1.1-.9 2-2 2H63.1c-1.1 0-2-.9-2-2V57.4c0-8.7 7.1-15.8 15.8-15.8s15.9 7.1 15.9 15.8zM52.3 19.3c-.2 0-.4 0-.6-.1L8.4 3.4C7.5 3.1 7 2.1 7.3 1.2 7.6.3 8.6-.2 9.6.2L53 16c.9.3 1.4 1.3 1 2.3-.3.6-.9 1-1.7 1zm0 10.6l-43.4-.6c-1 0-1.7-.8-1.7-1.8S8 25.8 9 25.8l43.4.6c1 0 1.7.8 1.7 1.8 0 .9-.8 1.7-1.8 1.7zM9 53.9c-.7 0-1.4-.5-1.7-1.2-.3-.9.2-1.9 1.2-2.2L51.8 37c.9-.3 1.9.2 2.2 1.2.3.9-.2 1.9-1.2 2.2L9.5 53.8c-.2.1-.4.1-.5.1z"/></g></g><g id="Exchange_Partnership"><path class="st2" d="M190.7 124.2h2v5.3h-2zm0-7.7h2v5.3h-2z"/><path d="M187.3 131.5h2v2h-2zm0-19h2v2h-2z"/><path class="st2" d="M189.3 124.2h1.3v5.3h-1.3zm7.7 5.3c1.9 0 3.4-1.2 3.4-2.7 0-1.5-1.5-2.7-3.4-2.7h-4.3v5.3h4.3zm-7.7-13h1.3v5.3h-1.3zm7.7 5.3c1.9 0 3.4-1.2 3.4-2.7 0-1.5-1.5-2.7-3.4-2.7h-4.3v5.3h4.3z"/><path d="M190.7 112.5h2v2h-2zm0 19h2v2h-2zm-1.4-2h1.3v2h-1.3zm0-15h1.3v2h-1.3zm0 7.3h1.3v2.3h-1.3zm-2.7-7.3c-.3 0-.6.3-.6.6v16c0 .3.3.6.6.6h.8v-17h-.8z"/><path d="M188.4 129.5c-.2 0-.4-.2-.4-.3v-4.7c0-.2.2-.3.4-.3h.9v-2.3h-.9c-.2 0-.4-.2-.4-.3v-4.7c0-.2.2-.3.4-.3h.9v-2h-2v17h2v-2h-.9zm11.8-6.5c1.5-.7 2.5-2.3 2.5-4 0-2.5-2-4.5-4.5-4.5h-5.4v2h4.3c1.9 0 3.4 1.2 3.4 2.7 0 1.5-1.5 2.7-3.4 2.7h-4.3v2.3h4.3c1.9 0 3.4 1.2 3.4 2.7 0 1.5-1.5 2.7-3.4 2.7h-4.3v2h5.4c2.5 0 4.5-2 4.5-4.5-.1-1.8-1-3.4-2.5-4.1zm-9.5 6.5h2v2h-2zm0-15h2v2h-2zm0 7.3h2v2.3h-2zm-48.4-18.3s.5.6.5 1.6h2.3s.4-3.6-4.5-4v-2.5h-2v2.5c-4.8.4-4.8 3.2-4.8 4.6 0 1.6.5 4 3.6 5l1.2.3v6.3c-1.1-.2-2.1-.9-2.1-2h-2.3s-.4 3.4 4.4 3.7v2h2v-2.1c4.1-.4 4.5-2.6 4.5-4.3 0-1.6-.7-3.7-4.5-5.1v-7c.6.2 1.2.5 1.7 1zm-5.5 0c.3-.3.9-.6 1.7-.8v6.3c-3-1-2.6-4.6-1.7-5.5zm5.5 11.5c0 1.1-.8 1.8-1.8 2.2v-5.4c1.1.5 1.8 1.4 1.8 3.2zm33.4-31c-5.8 0-10.5-4.7-10.5-10.5S169.9 63 175.7 63v2.1c-4.6 0-8.4 3.8-8.4 8.4s3.8 8.4 8.4 8.4V84z"/><path d="M162.3 70.6h13.1v2.1h-13.1zm0 3.7h13.1v2.1h-13.1zm3.6-77.9h-6c-.2 0-.3.1-.3.2v3.3c0 .1.1.2.3.2h6c1.3 0 2.4-.8 2.4-1.9-.1-1-1.1-1.8-2.4-1.8zm0 5.4h-6c-.2 0-.3.1-.3.2v3.3c0 .1.1.2.3.2h6c1.3 0 2.4-.8 2.4-1.9-.1-.9-1.1-1.8-2.4-1.8z"/><path d="M163.5-10c-6.1 0-11 4.9-11 11s4.9 11 11 11 11-4.9 11-11-4.9-11-11-11zm6.3 13.8c0 1.8-1.4 3.2-3.2 3.2h-3.8v1.4h-1.4V7h-.9v1.4H159V7h-.5c-.2 0-.4-.2-.4-.4V-4.6c0-.2.2-.4.4-.4h.5v-1.4h1.4V-5h.9v-1.4h1.4V-5h3.8c1.8 0 3.2 1.4 3.2 3.2 0 1.2-.7 2.3-1.7 2.8 1.1.5 1.8 1.6 1.8 2.8zM138 3c-4.4 0-8 3.6-8 8s3.6 8 8 8 8-3.6 8-8-3.6-8-8-8zm-4.2 8.9c-.4 0-.8-.4-.8-.8s.4-.8.8-.8.8.4.8.8-.4.8-.8.8zm6.4-3.7h-.9c0-.5-.2-.9-.2-.9-.5-.9-1.8-.5-2.1 0-.4.5-.5 2.6.7 3.2 2.1.7 2.5 2.1 2.5 3.2 0 .9-.1 2.1-1.6 2.4v.9h-1.1v-.9c-1.7-.2-1.6-2.1-1.6-2.1h.9c0 1.6 2.3 1.6 2.3-.2s-.7-1.9-1.9-2.5c-1.2-.5-1.4-1.9-1.4-2.8 0-.8 0-2.3 1.8-2.6V5h1.1v1c1.7.3 1.5 2.2 1.5 2.2zm2 3.7c-.4 0-.8-.4-.8-.8s.4-.8.8-.8.8.4.8.8-.4.8-.8.8z"/><path d="M191.7 28v16.7s-3.6.7-4.3.8c-.7.1-3 .8-4.7-.8-2.6-2.5-11.8-11.6-11.8-11.6s-1.6-1.6-4.1-.2c-2.3 1.2-5.8 3-7.2 3.7-2.7 1.5-5-.9-5-2.6 0-1.4.9-2.3 2.1-3 3.3-2 10.2-5.9 13.1-7.4 1.8-.9 3-1 5.4 1 3 2.5 5.6 4.8 5.6 4.8s.9.7 2.2.4c3.4-.7 8.7-1.8 8.7-1.8zm-36.6 28.3c.4-1.1.3-2.4-.6-3.3-.8-.8-1.9-1-3-.7.3-1.1.1-2.2-.6-3-.8-.8-1.9-1-3-.7.3-1.1.1-2.2-.6-3-1.2-1.2-3.3-1.2-4.7.1-1.4 1.3-2.2 3.7-1 5.1 1.2 1.4 2.6.5 3.7.3-.3 1.1-1.2 2-.1 3.4 1.1 1.4 2.6.5 3.7.3-.3 1.1-1.1 2.1-.1 3.4 1.1 1.3 2.8.6 3.9.2-.4 1.1-1.4 2.4-.2 3.7 1.2 1.4 4 .7 5.4-.6 1.4-1.3 1.5-3.4.3-4.6-.7-.7-2-.9-3.1-.6zm25-8.7L169.5 37s-1.6-1.6-3.7-.7c-1.5.7-3.4 1.5-4.8 2.2-1.6.8-2.7 1.1-3.3 1.1-3.1 0-5.5-2.5-5.5-5.5 0-2 1.1-3.7 2.6-4.7 2.2-1.5 7.3-4.2 7.3-4.2s-1.5-2-4.9-2c-3.4 0-10.5 4.6-10.5 4.6s-2 1.3-4.9.1l-5.5-1.9v19.2s1.6.5 3 1c.3-.9.8-1.8 1.6-2.4 2.3-2.2 6.2-2.3 8.4-.1.6.7 1.1 1.5 1.3 2.3.9.3 1.6.7 2.3 1.4.6.7 1.1 1.5 1.3 2.3.9.3 1.6.7 2.3 1.4.7.7 1.2 1.6 1.4 2.6.9.3 1.7.7 2.4 1.4 1.3 1.3 1.7 3.1 1.5 4.8 0 0 .8.9 1.3 1.4.9.9 2.5.9 3.4 0 .9-.9.9-2.5 0-3.4 0 0-3.4-3.6-3.1-3.8.3-.3 4.6 4.2 4.7 4.3.9.9 2.5.9 3.4 0 .9-.9.9-2.5 0-3.4l-.3-.3s-4.3-3.8-3.9-4.1c.3-.3 5.6 4.6 5.6 4.6 1 .9 2.4.9 3.3-.1.9-.9.9-2.3.1-3.3 0-.1-4-4.3-3.7-4.6.3-.3 4.3 3.8 4.3 3.8.9.9 2.5.9 3.4 0 .8-.9.8-2.4-.2-3.4.1 0 .1 0 0 0z" fill="#030104"/><path d="M193.6 14.9c5.9 6.9 9.4 15.8 9.4 25.6M172.7 2.1c4.3 1 8.4 2.8 12 5.1m-42-.3c3.6-2.2 7.6-3.9 11.9-4.9M124 40.5c0-10.1 3.8-19.4 10.1-26.4" stroke="#030104" stroke-linecap="round" stroke-miterlimit="10" fill="none"/><path d="M189 3c-4.4 0-8 3.6-8 8s3.6 8 8 8 8-3.6 8-8-3.6-8-8-8zm2.8 3.6c-2 0-3.6 1.3-4.3 3h4.1v1.1h-4.4v.8h4.4v1.1h-4.1c.6 1.7 2.3 3 4.3 3v1.1c-2.6 0-4.8-1.8-5.5-4.1h-1.8v-1.1h1.6v-.8h-1.6V9.6h1.8a5.7 5.7 0 015.5-4.1v1.1zM22 73.1h-4.6v11.8l5.5-10s.9-1.8-.9-1.8zm-11.9 1.8l5.5 10V73.1H11c-1.9 0-.9 1.8-.9 1.8z"/><path d="M16.7 65.5c-7.7 0-14 6.3-14 14s6.3 14 14 14 14-6.3 14-14-6.3-14-14-14zm8.9 10.3l-8.2 13.7s0 .9-.9.9-.9-.9-.9-.9L7.4 74.9s-.9-3.6 2.7-3.6h12.8s4.5-.1 2.7 4.5z"/><path d="M10 70.4c-.7 0-1.4-.5-1.6-1.2-1.3-4.2-2-8.6-2-13 0-20 13.5-37.4 32.8-42.4.9-.2 1.8.3 2 1.2.2.9-.3 1.8-1.2 2C22.3 21.7 9.8 37.8 9.8 56.2c0 4.1.6 8.1 1.8 12 .3.9-.2 1.8-1.1 2.1-.1.1-.3.1-.5.1zM50.2 100c-10.6 0-20.9-3.9-28.8-10.8-.7-.6-.8-1.7-.2-2.4.6-.7 1.7-.8 2.4-.2 7.4 6.5 16.8 10 26.6 10 9.1 0 17.6-2.9 24.8-8.5.7-.6 1.8-.4 2.4.3.6.7.4 1.8-.3 2.4-7.8 6-17 9.2-26.9 9.2zM90 71.8c-.2 0-.4 0-.6-.1-.9-.3-1.3-1.3-1-2.1 1.5-4.3 2.2-8.8 2.2-13.3 0-19.1-13.6-35.7-32.3-39.6-.9-.2-1.5-1.1-1.3-2 .2-.9 1.1-1.5 2-1.3 20.3 4.1 35 22.1 35 42.8 0 4.9-.8 9.8-2.4 14.4-.3.8-.9 1.2-1.6 1.2zM51.4 21c.9-.3 1.7-1 1.7-2.1 0-1.7-.6-2.5-1.7-3.1V21zm-2-7.7v-6c-.7.2-1.3.4-1.6.7-.8.9-1.2 4.4 1.6 5.3z"/><path d="M50.2 0c-7.7 0-14 6.3-14 14s6.3 14 14 14 14-6.3 14-14S58 0 50.2 0zm5.4 9.5h-2.2c0-.9-.4-1.5-.4-1.5-.4-.5-1-.7-1.7-.8v6.6c3.6 1.3 4.3 3.3 4.3 4.8 0 1.6-.4 3.7-4.3 4.1v2h-1.9v-1.9c-4.6-.3-4.2-3.5-4.2-3.5h2.2c0 1.1.9 1.7 2 1.9v-6c-.4-.1-.7-.2-1.1-.3-3-.9-3.5-3.2-3.5-4.7 0-1.4 0-4 4.6-4.4V3.3h1.9v2.4c4.7.5 4.3 3.8 4.3 3.8zm30.7 64.4h-7.7c-.2 0-.4.1-.4.3v4.2c0 .2.2.3.4.3h7.7c1.7 0 3-1.1 3-2.4.1-1.3-1.3-2.4-3-2.4zm0 7h-7.7c-.2 0-.4.1-.4.3v4.2c0 .2.2.3.4.3h7.7c1.7 0 3-1.1 3-2.4.1-1.4-1.3-2.4-3-2.4z"/><path d="M83.3 65.8c-7.7 0-14 6.3-14 14s6.3 14 14 14 14-6.3 14-14-6.2-14-14-14zm8.1 17.6c0 2.2-1.8 4.1-4.1 4.1h-4.9v1.8h-1.8v-1.8h-1.2v1.8h-1.8v-1.8h-.7c-.3 0-.5-.2-.5-.5V72.6c0-.3.2-.5.5-.5h.7v-1.8h1.8v1.8h1.2v-1.8h1.8v1.8h4.9c2.2 0 4.1 1.8 4.1 4.1 0 1.6-.9 2.9-2.2 3.6 1.3.7 2.2 2 2.2 3.6z"/><image width="314" height="318" xlink:href="스크린샷 2019-03-18 오후 4.04.06.png" transform="translate(-25 -36) scale(.1038)" overflow="visible" opacity=".6"/></g><g id="Fundraising" class="st0"><g class="st1"><path d="M72.1 72.8c-4.1.3-9.6 4.4-14.9 6.8-6.5 2.9-16.5.6-16.5.6 1.6-.7 7.8-2.2 9.1-2.8 6.7-3 6.2-9.1 3-9.1-4.2.1-6.7 1.1-15.2 2.3-6.4.9-14 .6-17.6 1.9-5.1 2-13.4 15.2-13.4 15.2L19.4 100s7.9-7.8 11.8-7.8c8.8 0 9.1-.1 17.3-.6 3.5-.2 4.2-.3 6.2-1C65.3 87 76.6 77.5 76.8 76.4c.4-2.6-2.5-3.8-4.7-3.6zM27.9 27.2c4.1-.3 9.6-4.4 14.9-6.8 6.5-2.9 16.5-.6 16.5-.6-1.6.7-7.8 2.2-9.1 2.8-6.7 3-6.2 9.1-3 9.1 4.2-.1 6.7-1.1 15.2-2.3 6.4-.9 14-.6 17.6-1.9 5.1-2 13.4-15.2 13.4-15.2L80.6 0s-7.9 7.8-11.8 7.8c-8.8 0-9.1.1-17.3.6-3.5.2-4.2.3-6.2 1C34.7 13 23.4 22.5 23.2 23.6c-.4 2.6 2.5 3.8 4.7 3.6zm23.8 15.7h-9.1c-.2 0-.4.2-.4.4v5c0 .2.2.4.4.4h9.1c2 0 3.6-1.3 3.6-2.8-.1-1.7-1.7-3-3.6-3zm0 8.2h-9.1c-.2 0-.4.2-.4.4v5c0 .2.2.4.4.4h9.1c2 0 3.6-1.3 3.6-2.8-.1-1.8-1.7-3-3.6-3z"/><path d="M48.5 33.4c-9.2 0-16.6 7.4-16.6 16.6 0 9.2 7.4 16.6 16.6 16.6 9.2 0 16.6-7.4 16.6-16.6 0-9.2-7.4-16.6-16.6-16.6zm9.1 20.7c0 2.6-2.1 4.8-4.8 4.8H47V61h-2.1v-2.1h-1.4V61h-2.1v-2.1h-.8c-.3 0-.6-.3-.6-.6v-17c0-.3.3-.6.6-.6h.8v-2.1h2.1v2.1h1.4v-2.1H47v2.1h5.8c2.6 0 4.8 2.1 4.8 4.8 0 1.9-1.1 3.5-2.6 4.3 1.6.8 2.6 2.4 2.6 4.3z"/><path d="M48.5 71.6c-11.9 0-21.6-9.7-21.6-21.6 0-11.9 9.7-21.6 21.6-21.6 11.9 0 21.6 9.7 21.6 21.6 0 11.9-9.6 21.6-21.6 21.6zm0-41.8c-11.2 0-20.2 9.1-20.2 20.2 0 11.2 9.1 20.2 20.2 20.2 11.2 0 20.2-9.1 20.2-20.2.1-11.2-9-20.2-20.2-20.2z"/></g><g class="st1"><path d="M154.4 70.3c-3 .2-6.9 3.2-10.7 4.9-4.6 2.1-11.9.4-11.9.4 1.1-.5 5.7-1.6 6.6-2 4.9-2.1 4.4-6.6 2.1-6.6-3.1.1-4.8.8-10.9 1.6-4.6.6-10.1.4-12.7 1.4-3.7 1.4-9.7 10.9-9.7 10.9l9.2 8.9s5.7-5.6 8.5-5.6c6.3 0 6.6-.1 12.4-.4 2.5-.1 3-.2 4.4-.7 7.6-2.6 15.8-9.4 15.9-10.3.5-1.7-1.6-2.6-3.2-2.5zm-31.8-32.7c3-.2 6.9-3.2 10.7-4.9 4.6-2.1 11.9-.4 11.9-.4-1.1.5-5.7 1.6-6.6 2-4.9 2.1-4.4 6.6-2.1 6.6 3.1-.1 4.8-.8 10.9-1.6 4.6-.6 10.1-.4 12.7-1.4 3.7-1.4 9.7-10.9 9.7-10.9l-9.2-8.9s-5.7 5.6-8.5 5.6c-6.3 0-6.6.1-12.4.4-2.5.1-3 .2-4.4.7-7.6 2.6-15.8 9.4-15.9 10.3-.5 1.7 1.6 2.6 3.2 2.5zm17.1 11.2h-6.5c-.2 0-.3.1-.3.3v3.6c0 .1.1.3.3.3h6.5c1.4 0 2.6-.9 2.6-2 0-1.2-1.2-2.2-2.6-2.2zm0 5.9h-6.5c-.2 0-.3.1-.3.3v3.6c0 .1.1.3.3.3h6.5c1.4 0 2.6-.9 2.6-2 0-1.3-1.2-2.2-2.6-2.2z"/><path d="M137.4 42c-6.6 0-11.9 5.4-11.9 11.9 0 6.6 5.3 11.9 11.9 11.9 6.6 0 11.9-5.3 11.9-11.9.1-6.5-5.3-11.9-11.9-11.9zm6.6 14.9c0 1.9-1.5 3.4-3.4 3.4h-4.2v1.5h-1.5v-1.5h-1v1.5h-1.5v-1.5h-.6c-.2 0-.4-.2-.4-.4V47.7c0-.2.2-.4.4-.4h.6v-1.5h1.5v1.5h1v-1.5h1.5v1.5h4.2c1.9 0 3.4 1.5 3.4 3.4 0 1.3-.8 2.5-1.9 3.1 1.1.6 1.9 1.8 1.9 3.1z"/><circle cx="137.4" cy="53.9" r="15.1" fill="none" stroke="#000" stroke-miterlimit="10"/></g></g><g id="Transnational_Business" class="st0"><g class="st1"><path d="M13.1 70.6c.5-.2 1.2.2 1.4-.2.2-.5-.5-1.2-.5-1.2l.2-1.4.2-1.2.7-1.2s.5-.2 1.6 1.2c1.2 1.4.2.9.2.9l.5 1.4 2.1.5.5-.5-.9-1.6.9-1.6h2.6l.5-.5c.2-.2 4.2-1.9 1.9-1.6-2.3.2-3.5-2.3-3.5-2.3l-1.4-2.6v-3s.9-1.2 4.2-1.2 3.3.7 3.3.7 1.2-.5 2.8-1.6c1.6-1.2.5-2.1.5-2.1V47l2.8-4.5 1.2-1.2 2.1.2 2.8-1.6-.2-4.7-1.2-3.3s-.7-2.1-2.3-1.9c-1.6.2-.7 1.2-1.6 2.1-.9.9-.9 1.6-2.6 2.1-1.6.5-.7-.9.7-2.6 1.4-1.6 1.9-8 1.9-8l-2.8 2.8C30 28.2 27.4 31 26 30.1c-1.4-.9-7.3 4-8.9 4-1.1 0-5.8 2.1-8.6 3.4 0 .1-.1.3-.1.4-1.1 3.8-1.7 7.9-1.7 12.1 0 8.3 2.3 16 6.3 22.6-.1-1-.1-1.9.1-2zm57.1-59.2c-.1 0-.1-.1-.2-.1-1 .6-4.1 2.7-6 5.4-2.3 3.3-2.6 7.3-5.6 8-3 .7-9.1 2.6-9.1 4S47 32 48.1 33.4c1.2 1.4 4.2 4 4 5.9s-1.9.7-.5 4 3.3 4 6.1 3.8c2.8-.2 3.8-1.4 4.9-3.5 1.2-2.1-1.6-4.2.9-4.2 2.6 0 6.6-.5 7.3.7.7 1.2 1.4 1.2 1.6 2.3.2 1.2 1.6 0 1.6 2.6s2.6 2.1 2.6 2.1 4.9-1.4 6.1 0c1.2 1.4.9 1.9.5 3.5-.5 1.6-.7 0-1.4 3.8s.2 2.8 2.1 4.9c1.9 2.1 5.6-.9 6.1-1.4.5-.5.5-.2.5 1.2s.7.9 0 2.8c-.6 1.6.7.8.5 3h.1c1.7-4.6 2.6-9.6 2.6-14.7 0-17-9.5-31.6-23.5-38.8zM59 84c-1 0-2.1-.2-2.5-.3l-6.6-6.1-.5-3.6-2.9-1.6h-3.4l-2.8-.4.2-4c.2-1.1.4-1.8 1.4-2.4.8-.5 1.1-.6 1.6-.6.3 0 .7.1 1.2.2 1.6.4 3.2 1.4 3.2 1.4l.1.1 2.4-.3 2.7-2.2 2.1-1.2.3-.3 1.2.2 1.9.7h.1s.4-.1.8-.1c.5 0 1 .1 1.2.5.2.4.3.8.5.9l.4 3.1-.5 2.3 1.4 1.7h.1c.5.3 1.2.8 1.3 1.2v.2c-.7.9-.9 2-1 2.2-.3.6-2.6 5.2-2.1 7.5 0 .3 0 .4-.1.4.1.2-.3.5-1.7.5z"/><path d="M55.9 63.3l.8.1 1.8.7.3.1.3-.1s.3-.1.7-.1c.5 0 .7.1.7.2.1.3.3.7.5 1l.4 2.9-.5 1.9-.1.5.3.4 1.2 1.4.1.1.2.1c.4.2.8.6 1 .8-.6.9-.9 1.8-1 2.2-.5.9-2.6 5.3-2.1 7.8-.1.1-.5.2-1.4.2-.9 0-1.8-.1-2.3-.2l-6.3-5.9-.5-3.1-.1-.5-.4-.2-2.6-1.4-.2-.2h-3.5l-2.3-.3.2-3.5c.2-1.1.4-1.6 1.2-2.1.7-.4 1-.6 1.4-.6.3 0 .6.1 1.1.2 1.5.4 3 1.3 3.1 1.3l.3.2h.3l2.1-.2h.3l.2-.2 2.5-2.1 2-1.1.1-.1.1-.1.1-.1m-.3-1.1l-.5.5-2.1 1.1-2.6 2.1-2.1.2s-1.6-.9-3.3-1.4c-.6-.2-1-.2-1.4-.2-.7 0-1.1.3-1.9.7-1.2.7-1.4 1.6-1.6 2.8l-.2 4.5 3.3.5h3.3l2.6 1.4.5 3.5 6.8 6.3s1.4.3 2.8.3 2.6-.3 2.4-1.5c-.5-2.3 2.1-7.3 2.1-7.3s.2-1.2.9-2.1c.7-.9-1.4-2.1-1.4-2.1L62 70.1l.5-2.1-.5-3.5v.1c-.1 0-.2-.1-.4-.8s-1-.8-1.7-.8c-.5 0-.9.1-.9.1l-2-.7-1.4-.2z"/><path d="M50 7.3c23.5 0 42.7 19.1 42.7 42.7S73.5 92.7 50 92.7 7.3 73.5 7.3 50 26.5 7.3 50 7.3m0-1C25.9 6.3 6.3 25.9 6.3 50S25.9 93.7 50 93.7 93.7 74.1 93.7 50 74.1 6.3 50 6.3z"/><circle cx="50" cy="50" r="50" fill="none" stroke="#000" stroke-width=".5" stroke-miterlimit="10"/></g></g></svg>