<svg xmlns="http://www.w3.org/2000/svg" xmlns:xlink="http://www.w3.org/1999/xlink" viewBox="0 0 100 100"><style>.st0{display:none}.st1{display:inline}.st2{stroke:#000;stroke-width:3;stroke-linecap:round;stroke-miterlimit:10}.st2,.st5{fill:none}</style><image width="236" height="758" xlink:href="스크린샷 2019-03-18 오후 2.13.02.png" transform="translate(-39 5) scale(.1148)" overflow="visible" id="레이어_1"/><g id="레이어_3" class="st0"><g class="st1"><circle cx="72" cy="29" r="13.5"/><path d="M85.5 58v34.6c0 .9-.8 1.7-1.7 1.7H60.2c-.9 0-1.7-.8-1.7-1.7V58c0-7.5 6-13.5 13.5-13.5s13.5 6 13.5 13.5z"/><path class="st2" d="M51 24L14 10.5M51 33l-37-.5M51 42L14 53.5"/></g></g><g id="레이어_4" class="st0"><g class="st1"><path class="st2" d="M183.2 133.1c-4.3 2.2-9.1 3.4-14.2 3.4-6.3 0-12.2-1.8-17.1-5M179 75.1c12.5 4.2 21.5 16 21.5 29.9 0 2.1-.2 4.2-.6 6.3m-61.9-.8c-.3-1.8-.5-3.6-.5-5.5 0-13.8 8.9-25.6 21.3-29.8"/></g><circle cx="169" cy="105.5" r="15.5" fill="none" stroke="#000" stroke-width=".75" stroke-linecap="round" stroke-miterlimit="10" stroke-dasharray="3.0426,3.0426"/><circle cx="51" cy="166" r="31.5" fill="none" stroke="#000" stroke-width="3" stroke-linecap="round" stroke-miterlimit="10"/><g class="st1"><path class="st5" d="M190.7 124.2h2v5.3h-2zm0-7.7h2v5.3h-2z"/><path d="M187.3 131.5h2v2h-2zm0-19h2v2h-2z"/><path class="st5" d="M189.3 124.2h1.3v5.3h-1.3zm7.7 5.3c1.9 0 3.4-1.2 3.4-2.7 0-1.5-1.5-2.7-3.4-2.7h-4.3v5.3h4.3zm-7.7-13h1.3v5.3h-1.3zm7.7 5.3c1.9 0 3.4-1.2 3.4-2.7 0-1.5-1.5-2.7-3.4-2.7h-4.3v5.3h4.3z"/><path d="M190.7 112.5h2v2h-2zm0 19h2v2h-2zm-1.4-2h1.3v2h-1.3zm0-15h1.3v2h-1.3zm0 7.3h1.3v2.3h-1.3zm-2.7-7.3c-.3 0-.6.3-.6.6v16c0 .3.3.6.6.6h.8v-17h-.8z"/><path d="M188.4 129.5c-.2 0-.4-.2-.4-.3v-4.7c0-.2.2-.3.4-.3h.9v-2.3h-.9c-.2 0-.4-.2-.4-.3v-4.7c0-.2.2-.3.4-.3h.9v-2h-2v17h2v-2h-.9zm11.8-6.5c1.5-.7 2.5-2.3 2.5-4 0-2.5-2-4.5-4.5-4.5h-5.4v2h4.3c1.9 0 3.4 1.2 3.4 2.7 0 1.5-1.5 2.7-3.4 2.7h-4.3v2.3h4.3c1.9 0 3.4 1.2 3.4 2.7 0 1.5-1.5 2.7-3.4 2.7h-4.3v2h5.4c2.5 0 4.5-2 4.5-4.5-.1-1.8-1-3.4-2.5-4.1zm-9.5 6.5h2v2h-2zm0-15h2v2h-2zm0 7.3h2v2.3h-2z"/></g><g class="st1"><path d="M52.9 17.4h-6c-.2 0-.3.1-.3.2v3.3c0 .1.1.2.3.2h6c1.3 0 2.4-.8 2.4-1.9-.1-1-1.1-1.8-2.4-1.8zm0 5.4h-6c-.2 0-.3.1-.3.2v3.3c0 .1.1.2.3.2h6c1.3 0 2.4-.8 2.4-1.9-.1-.9-1.1-1.8-2.4-1.8z"/><path d="M50.5 11c-6.1 0-11 4.9-11 11s4.9 11 11 11 11-4.9 11-11-4.9-11-11-11zm6.3 13.8c0 1.8-1.4 3.2-3.2 3.2h-3.8v1.4h-1.4V28h-.9v1.4H46V28h-.5c-.2 0-.4-.2-.4-.4V16.4c0-.2.2-.4.4-.4h.5v-1.4h1.4V16h.9v-1.4h1.4V16h3.8c1.8 0 3.2 1.4 3.2 3.2 0 1.2-.7 2.3-1.7 2.8 1.1.5 1.8 1.6 1.8 2.8z"/></g><g class="st1"><path d="M143.5 131.8h2v2.7h-2z"/><path d="M148.5 117.6s.3-4.4-4.1-4.4c-4.4 0-4.4 3.4-4.4 5.1 0 1.7.3 4.4 2.7 5.4 2.4 1 3.7 1.4 3.7 4.7 0 3.4-4.4 3.4-4.4.3h-1.7s-.3 4.1 3.7 4.1 4.4-2.7 4.4-4.7-.7-4.7-4.7-6.1c-2.4-1-2-5.1-1.4-6.1.7-1 3-1.7 4.1 0 0 0 .3.7.3 1.7h1.8z"/><path d="M143.5 111.5h2v2.7h-2z"/><circle cx="152.8" cy="123.2" r="1.5"/><circle cx="136.5" cy="123.2" r="1.5"/></g><path class="st1" d="M25 24c-4.4 0-8 3.6-8 8s3.6 8 8 8 8-3.6 8-8-3.6-8-8-8zm-4.2 8.9c-.4 0-.8-.4-.8-.8s.4-.8.8-.8.8.4.8.8-.4.8-.8.8zm6.4-3.7h-.9c0-.5-.2-.9-.2-.9-.5-.9-1.8-.5-2.1 0-.4.5-.5 2.6.7 3.2 2.1.7 2.5 2.1 2.5 3.2 0 .9-.1 2.1-1.6 2.4v.9h-1.1v-.9C22.9 36.8 23 35 23 35h.9c0 1.6 2.3 1.6 2.3-.2s-.7-1.9-1.9-2.5c-1.2-.5-1.4-1.9-1.4-2.8 0-.8 0-2.3 1.8-2.6V26h1.1v1c1.6.3 1.4 2.2 1.4 2.2zm2 3.7c-.4 0-.8-.4-.8-.8s.4-.8.8-.8.8.4.8.8-.4.8-.8.8z"/><g class="st1"><path d="M175.7 84c-5.8 0-10.5-4.7-10.5-10.5S169.9 63 175.7 63v2.1c-4.6 0-8.4 3.8-8.4 8.4s3.8 8.4 8.4 8.4V84z"/><path d="M162.3 70.6h13.1v2.1h-13.1zm0 3.7h13.1v2.1h-13.1z"/></g><path d="M78.7 49v16.7s-3.6.7-4.3.8c-.7.1-3 .8-4.7-.8-2.7-2.4-11.9-11.6-11.9-11.6s-1.6-1.6-4.1-.2c-2.3 1.2-5.8 3-7.2 3.7-2.7 1.5-5-.9-5-2.6 0-1.4.9-2.3 2.1-3 3.3-2 10.2-5.9 13.1-7.4 1.8-.9 3-1 5.4 1 3 2.5 5.6 4.8 5.6 4.8s.9.7 2.2.4c3.5-.7 8.8-1.8 8.8-1.8zM42.1 77.3c.4-1.1.3-2.4-.6-3.3-.8-.8-1.9-1-3-.7.3-1.1.1-2.2-.6-3-.8-.8-1.9-1-3-.7.3-1.1.1-2.2-.6-3-1.2-1.2-3.3-1.2-4.7.1-1.4 1.3-2.2 3.7-1 5.1 1.2 1.4 2.6.5 3.7.3-.3 1.1-1.2 2-.1 3.4 1.1 1.4 2.6.5 3.7.3-.3 1.1-1.1 2.1-.1 3.4 1.1 1.3 2.8.6 3.9.2-.4 1.1-1.4 2.4-.2 3.7 1.2 1.4 4 .7 5.4-.6 1.4-1.3 1.5-3.4.3-4.6-.7-.7-2-.9-3.1-.6zm25-8.7L56.5 58s-1.6-1.6-3.7-.7c-1.5.7-3.4 1.5-4.8 2.2-1.6.8-2.7 1.1-3.3 1.1-3.1 0-5.5-2.5-5.5-5.5 0-2 1.1-3.7 2.6-4.7 2.2-1.5 7.3-4.2 7.3-4.2s-1.5-2-4.9-2c-3.4 0-10.5 4.6-10.5 4.6s-2 1.3-4.9.1L23.3 47v19.2s1.6.5 3 1c.3-.9.8-1.8 1.6-2.4 2.3-2.2 6.2-2.3 8.4-.1.6.7 1.1 1.5 1.3 2.3.9.3 1.6.7 2.3 1.4.6.7 1.1 1.5 1.3 2.3.9.3 1.6.7 2.3 1.4.7.7 1.2 1.6 1.4 2.6.9.3 1.7.7 2.4 1.4 1.3 1.3 1.7 3.1 1.5 4.8 0 0 .8.9 1.3 1.4.9.9 2.5.9 3.4 0 .9-.9.9-2.5 0-3.4 0 0-3.4-3.6-3.1-3.8.3-.3 4.6 4.2 4.7 4.3.9.9 2.5.9 3.4 0 .9-.9.9-2.5 0-3.4l-.3-.3s-4.3-3.8-3.9-4.1c.3-.3 5.6 4.6 5.6 4.6 1 .9 2.4.9 3.3-.1.9-.9.9-2.3.1-3.3 0-.1-4-4.3-3.7-4.6.3-.3 4.3 3.8 4.3 3.8.9.9 2.5.9 3.4 0 .8-.9.8-2.4-.2-3.4.1 0 .1 0 0 0z" fill="#030104"/><path d="M80.6 35.9c5.9 6.9 9.4 15.8 9.4 25.6M59.7 23.1c4.3 1 8.4 2.8 12 5.1m-42-.3c3.6-2.2 7.6-3.9 11.9-4.9M11 61.5c0-10.1 3.8-19.4 10.1-26.4" stroke="#030104" stroke-linecap="round" fill="none" stroke-miterlimit="10"/><path class="st1" d="M76 24c-4.4 0-8 3.6-8 8s3.6 8 8 8 8-3.6 8-8-3.6-8-8-8zm2.8 3.6c-2 0-3.6 1.3-4.3 3h4.1v1.1h-4.4v.8h4.4v1.1h-4.1c.6 1.7 2.3 3 4.3 3v1.1c-2.6 0-4.8-1.8-5.5-4.1h-1.8v-1.1h1.6v-.8h-1.6v-1.1h1.8a5.7 5.7 0 015.5-4.1v1.1z"/></g><g id="레이어_5"><path d="M72.1 72.8c-4.1.3-9.6 4.4-14.9 6.8-6.5 2.9-16.5.6-16.5.6 1.6-.7 7.8-2.2 9.1-2.8 6.7-3 6.2-9.1 3-9.1-4.2.1-6.7 1.1-15.2 2.3-6.4.9-14 .6-17.6 1.9-5.1 2-13.4 15.2-13.4 15.2L19.4 100s7.9-7.8 11.8-7.8c8.8 0 9.1-.1 17.3-.6 3.5-.2 4.2-.3 6.2-1C65.3 87 76.6 77.5 76.8 76.4c.4-2.6-2.5-3.8-4.7-3.6zM27.9 27.2c4.1-.3 9.6-4.4 14.9-6.8 6.5-2.9 16.5-.6 16.5-.6-1.6.7-7.8 2.2-9.1 2.8-6.7 3-6.2 9.1-3 9.1 4.2-.1 6.7-1.1 15.2-2.3 6.4-.9 14-.6 17.6-1.9 5.1-2 13.4-15.2 13.4-15.2L80.6 0s-7.9 7.8-11.8 7.8c-8.8 0-9.1.1-17.3.6-3.5.2-4.2.3-6.2 1C34.7 13 23.4 22.5 23.2 23.6c-.4 2.6 2.5 3.8 4.7 3.6zm23.8 15.7h-9.1c-.2 0-.4.2-.4.4v5c0 .2.2.4.4.4h9.1c2 0 3.6-1.3 3.6-2.8-.1-1.7-1.7-3-3.6-3zm0 8.2h-9.1c-.2 0-.4.2-.4.4v5c0 .2.2.4.4.4h9.1c2 0 3.6-1.3 3.6-2.8-.1-1.8-1.7-3-3.6-3z"/><path d="M48.5 33.4c-9.2 0-16.6 7.4-16.6 16.6 0 9.2 7.4 16.6 16.6 16.6 9.2 0 16.6-7.4 16.6-16.6 0-9.2-7.4-16.6-16.6-16.6zm9.1 20.7c0 2.6-2.1 4.8-4.8 4.8H47V61h-2.1v-2.1h-1.4V61h-2.1v-2.1h-.8c-.3 0-.6-.3-.6-.6v-17c0-.3.3-.6.6-.6h.8v-2.1h2.1v2.1h1.4v-2.1H47v2.1h5.8c2.6 0 4.8 2.1 4.8 4.8 0 1.9-1.1 3.5-2.6 4.3 1.6.8 2.6 2.4 2.6 4.3z"/><path d="M48.5 71.6c-11.9 0-21.6-9.7-21.6-21.6 0-11.9 9.7-21.6 21.6-21.6 11.9 0 21.6 9.7 21.6 21.6 0 11.9-9.6 21.6-21.6 21.6zm0-41.8c-11.2 0-20.2 9.1-20.2 20.2 0 11.2 9.1 20.2 20.2 20.2 11.2 0 20.2-9.1 20.2-20.2.1-11.2-9-20.2-20.2-20.2zm105.9 40.5c-3 .2-6.9 3.2-10.7 4.9-4.6 2.1-11.9.4-11.9.4 1.1-.5 5.7-1.6 6.6-2 4.9-2.1 4.4-6.6 2.1-6.6-3.1.1-4.8.8-10.9 1.6-4.6.6-10.1.4-12.7 1.4-3.7 1.4-9.7 10.9-9.7 10.9l9.2 8.9s5.7-5.6 8.5-5.6c6.3 0 6.6-.1 12.4-.4 2.5-.1 3-.2 4.4-.7 7.6-2.6 15.8-9.4 15.9-10.3.5-1.7-1.6-2.6-3.2-2.5zm-31.8-32.7c3-.2 6.9-3.2 10.7-4.9 4.6-2.1 11.9-.4 11.9-.4-1.1.5-5.7 1.6-6.6 2-4.9 2.1-4.4 6.6-2.1 6.6 3.1-.1 4.8-.8 10.9-1.6 4.6-.6 10.1-.4 12.7-1.4 3.7-1.4 9.7-10.9 9.7-10.9l-9.2-8.9s-5.7 5.6-8.5 5.6c-6.3 0-6.6.1-12.4.4-2.5.1-3 .2-4.4.7-7.6 2.6-15.8 9.4-15.9 10.3-.5 1.7 1.6 2.6 3.2 2.5zm17.1 11.2h-6.5c-.2 0-.3.1-.3.3v3.6c0 .1.1.3.3.3h6.5c1.4 0 2.6-.9 2.6-2 0-1.2-1.2-2.2-2.6-2.2zm0 5.9h-6.5c-.2 0-.3.1-.3.3v3.6c0 .1.1.3.3.3h6.5c1.4 0 2.6-.9 2.6-2 0-1.3-1.2-2.2-2.6-2.2z"/><path d="M137.4 42c-6.6 0-11.9 5.4-11.9 11.9 0 6.6 5.3 11.9 11.9 11.9 6.6 0 11.9-5.3 11.9-11.9.1-6.5-5.3-11.9-11.9-11.9zm6.6 14.9c0 1.9-1.5 3.4-3.4 3.4h-4.2v1.5h-1.5v-1.5h-1v1.5h-1.5v-1.5h-.6c-.2 0-.4-.2-.4-.4V47.7c0-.2.2-.4.4-.4h.6v-1.5h1.5v1.5h1v-1.5h1.5v1.5h4.2c1.9 0 3.4 1.5 3.4 3.4 0 1.3-.8 2.5-1.9 3.1 1.1.6 1.9 1.8 1.9 3.1z"/><circle cx="137.4" cy="53.9" r="15.1" fill="none" stroke="#000" stroke-miterlimit="10"/></g><g id="레이어_2" class="st0"><path d="M51.6 10c6.2 0 12.5 1.5 18 4.4 13 6.7 21 20 21 34.6 0 21.5-17.5 39-39 39s-39-17.5-39-39c0-3.7.5-7.3 1.5-10.8C18.9 21.6 34.3 10 51.6 10m0-1C33.3 9 17.9 21.2 13.1 37.9c-1 3.5-1.6 7.3-1.6 11.1 0 22.1 17.9 40 40 40s40-17.9 40-40c0-15.5-8.8-28.9-21.6-35.5C64.5 10.6 58.2 9 51.6 9z"/><path d="M70.1 13.2s-3.7 2.2-5.8 5.2c-2.2 3-2.4 6.7-5.2 7.3-2.8.6-8.4 2.4-8.4 3.7 0 1.3-2.2 3-1.1 4.3s3.9 3.7 3.7 5.4-1.7.6-.4 3.7 3 3.7 5.6 3.5C61 46 61.9 44.9 63 43s-1.5-3.9.9-3.9 6-.4 6.7.6c.6 1.1 1.3 1.1 1.5 2.2.2 1.1 1.5 0 1.5 2.4s2.4 1.9 2.4 1.9 4.5-1.3 5.6 0c1.1 1.3.9 1.7.4 3.2s-.6 0-1.3 3.5c-.6 3.5.2 2.6 1.9 4.5s5.2-.9 5.6-1.3.4-.2.4 1.1.6.9 0 2.6c-.5 1.5.6.8.5 2.7M11.2 38.4s8.4-4.1 9.9-4.1 6.9-4.5 8.2-3.7 3.7-1.7 5.2-3.2l2.6-2.6s-.4 5.8-1.7 7.3c-1.3 1.5-2.2 2.8-.6 2.4 1.5-.4 1.5-1.1 2.4-1.9.9-.9 0-1.7 1.5-1.9s2.2 1.7 2.2 1.7l1.1 3 .2 4.3-2.6 1.5-2.1-.2-1.1 1.1-2.6 4.1v4.1s1.1.9-.4 1.9c-1.5 1.1-2.6 1.5-2.6 1.5s0-.6-3-.6-3.8 1.1-3.8 1.1V57l1.3 2.4s1.1 2.4 3.2 2.2-1.5 1.2-1.7 1.4l-.4.4H24l-.9 1.6.9 1.5-.4.4-1.9-.4-.4-1.3s.9.4-.2-.9-1.5-1.1-1.5-1.1l-.6 1.1-.2 1.1-.2 1.3s.6.6.4 1.1-.9 0-1.3.2.2 5 .2 5m24.4-7.4c.2-1.1.4-1.9 1.5-2.6s1.5-.9 3-.4c1.5.4 3 1.3 3 1.3l1.9-.2 2.4-1.9 1.9-1.1.4-.4 1.3.2 1.7.6s1.9-.4 2.4.6c.4 1.1.4.6.4.6l.4 3.2-.4 1.9 1.1 1.3s1.9 1.1 1.3 1.9c-.6.9-.9 1.9-.9 1.9s-2.4 4.5-1.9 6.7-4.7 1.1-4.7 1.1l-6.3-5.8-.4-3.2L48 70h-3l-3-.4.3-4z" stroke="#000" fill="none" stroke-miterlimit="10"/></g></svg>