<svg xmlns="http://www.w3.org/2000/svg" xmlns:xlink="http://www.w3.org/1999/xlink" viewBox="0 0 100 100"><style>.st0{display:none}.st1{display:inline}.st5{fill:none}.st6{fill:#030104}</style><image width="236" height="758" xlink:href="스크린샷 2019-03-18 오후 2.13.02.png" transform="translate(-39 5) scale(.1148)" overflow="visible" id="레이어_1"/><g id="레이어_3"><circle cx="77" cy="23.4" r="15.8"/><path d="M92.8 57.4V98c0 1.1-.9 2-2 2H63.1c-1.1 0-2-.9-2-2V57.4c0-8.7 7.1-15.8 15.8-15.8s15.9 7.1 15.9 15.8zM52.3 19.3c-.2 0-.4 0-.6-.1L8.4 3.4C7.5 3.1 7 2.1 7.3 1.2 7.6.3 8.6-.2 9.6.2L53 16c.9.3 1.4 1.3 1 2.3-.3.6-.9 1-1.7 1zm0 10.6l-43.4-.6c-1 0-1.7-.8-1.7-1.8S8 25.8 9 25.8l43.4.6c1 0 1.7.8 1.7 1.8 0 .9-.8 1.7-1.8 1.7zM9 53.9c-.7 0-1.4-.5-1.7-1.2-.3-.9.2-1.9 1.2-2.2L51.8 37c.9-.3 1.9.2 2.2 1.2.3.9-.2 1.9-1.2 2.2L9.5 53.8c-.2.1-.4.1-.5.1z"/></g><g id="Exchange_Partnership" class="st0"><path d="M183.2 133.1c-4.3 2.2-9.1 3.4-14.2 3.4-6.3 0-12.2-1.8-17.1-5M179 75.1c12.5 4.2 21.5 16 21.5 29.9 0 2.1-.2 4.2-.6 6.3m-61.9-.8c-.3-1.8-.5-3.6-.5-5.5 0-13.8 8.9-25.6 21.3-29.8" fill="none" stroke="#000" stroke-width="3" stroke-linecap="round" stroke-miterlimit="10"/><circle cx="169" cy="105.5" r="15.5" fill="none" stroke="#000" stroke-width=".75" stroke-linecap="round" stroke-miterlimit="10" stroke-dasharray="3.0426,3.0426"/><circle cx="51" cy="166" r="31.5" fill="none" stroke="#000" stroke-width="3" stroke-linecap="round" stroke-miterlimit="10"/><g class="st1"><path class="st5" d="M190.7 124.2h2v5.3h-2zm0-7.7h2v5.3h-2z"/><path d="M187.3 131.5h2v2h-2zm0-19h2v2h-2z"/><path class="st5" d="M189.3 124.2h1.3v5.3h-1.3zm7.7 5.3c1.9 0 3.4-1.2 3.4-2.7 0-1.5-1.5-2.7-3.4-2.7h-4.3v5.3h4.3zm-7.7-13h1.3v5.3h-1.3zm7.7 5.3c1.9 0 3.4-1.2 3.4-2.7 0-1.5-1.5-2.7-3.4-2.7h-4.3v5.3h4.3z"/><path d="M190.7 112.5h2v2h-2zm0 19h2v2h-2zm-1.4-2h1.3v2h-1.3zm0-15h1.3v2h-1.3zm0 7.3h1.3v2.3h-1.3zm-2.7-7.3c-.3 0-.6.3-.6.6v16c0 .3.3.6.6.6h.8v-17h-.8z"/><path d="M188.4 129.5c-.2 0-.4-.2-.4-.3v-4.7c0-.2.2-.3.4-.3h.9v-2.3h-.9c-.2 0-.4-.2-.4-.3v-4.7c0-.2.2-.3.4-.3h.9v-2h-2v17h2v-2h-.9zm11.8-6.5c1.5-.7 2.5-2.3 2.5-4 0-2.5-2-4.5-4.5-4.5h-5.4v2h4.3c1.9 0 3.4 1.2 3.4 2.7 0 1.5-1.5 2.7-3.4 2.7h-4.3v2.3h4.3c1.9 0 3.4 1.2 3.4 2.7 0 1.5-1.5 2.7-3.4 2.7h-4.3v2h5.4c2.5 0 4.5-2 4.5-4.5-.1-1.8-1-3.4-2.5-4.1zm-9.5 6.5h2v2h-2zm0-15h2v2h-2zm0 7.3h2v2.3h-2z"/></g><g class="st1"><path d="M143.5 131.8h2v2.7h-2z"/><path d="M148.5 117.6s.3-4.4-4.1-4.4c-4.4 0-4.4 3.4-4.4 5.1 0 1.7.3 4.4 2.7 5.4 2.4 1 3.7 1.4 3.7 4.7 0 3.4-4.4 3.4-4.4.3h-1.7s-.3 4.1 3.7 4.1 4.4-2.7 4.4-4.7-.7-4.7-4.7-6.1c-2.4-1-2-5.1-1.4-6.1.7-1 3-1.7 4.1 0 0 0 .3.7.3 1.7h1.8z"/><path d="M143.5 111.5h2v2.7h-2z"/><circle cx="152.8" cy="123.2" r="1.5"/><circle cx="136.5" cy="123.2" r="1.5"/></g><g class="st1"><path d="M175.7 84c-5.8 0-10.5-4.7-10.5-10.5S169.9 63 175.7 63v2.1c-4.6 0-8.4 3.8-8.4 8.4s3.8 8.4 8.4 8.4V84z"/><path d="M162.3 70.6h13.1v2.1h-13.1zm0 3.7h13.1v2.1h-13.1z"/></g><g class="st1"><path d="M52.9 12.4h-7.6c-.2 0-.4.1-.4.3v4.1c0 .2.2.3.4.3h7.6c1.6 0 3-1.1 3-2.4 0-1.3-1.3-2.3-3-2.3zm0 6.8h-7.6c-.2 0-.4.1-.4.3v4.1c0 .2.2.3.4.3h7.6c1.6 0 3-1.1 3-2.4 0-1.3-1.3-2.3-3-2.3z"/><path d="M50 4.4c-7.6 0-13.8 6.2-13.8 13.8S42.4 31.9 50 31.9s13.8-6.2 13.8-13.8S57.6 4.4 50 4.4zm7.9 17.3c0 2.2-1.8 4-4 4h-4.8v1.8h-1.8v-1.8h-1.2v1.8h-1.8v-1.8h-.7c-.3 0-.5-.2-.5-.5V11c0-.3.2-.5.5-.5h.7V8.8h1.8v1.8h1.2V8.8h1.8v1.8h4.8c2.2 0 4 1.8 4 4 0 1.5-.9 2.9-2.2 3.5 1.3.7 2.2 2 2.2 3.6zm-39.8-1.1c-5.5 0-10 4.5-10 10s4.5 10 10 10 10-4.5 10-10-4.5-10-10-10zm-5.2 11.1c-.5 0-1-.4-1-1 0-.5.4-1 1-1 .5 0 1 .4 1 1-.1.6-.5 1-1 1zm8-4.6h-1.1c0-.7-.2-1.1-.2-1.1-.7-1.1-2.2-.7-2.6 0-.4.7-.7 3.3.9 3.9 2.6.9 3.1 2.6 3.1 3.9 0 1.2-.2 2.6-2 3V38h-1.3v-1c-2.2-.3-2-2.6-2-2.6h1.1c0 2 2.9 2 2.9-.2s-.9-2.4-2.4-3.1c-1.5-.7-1.8-2.4-1.8-3.5 0-1 0-2.9 2.2-3.2v-1.1H19v1.2c2.1.2 1.9 2.6 1.9 2.6zm2.5 4.6c-.5 0-1-.4-1-1 0-.5.4-1 1-1 .5 0 1 .4 1 1s-.5 1-1 1z"/><path class="st6" d="M85.2 51.8v20.9s-4.5.9-5.4 1c-.9.1-3.8 1-5.9-1-3.2-3.1-14.7-14.5-14.7-14.5s-2-1.9-5.2-.3c-2.9 1.5-7.2 3.8-9.1 4.7-3.4 1.8-6.2-1.1-6.2-3.3 0-1.7 1.1-2.9 2.6-3.7 4.1-2.5 12.8-7.4 16.4-9.3 2.2-1.2 3.8-1.3 6.8 1.3 3.7 3.1 7 6 7 6s1.1.9 2.8.5c4.3-.8 10.9-2.3 10.9-2.3zM39.5 87.3c.6-1.4.4-3-.7-4.1-1-1-2.4-1.2-3.7-.9.4-1.3.2-2.7-.8-3.7s-2.4-1.2-3.7-.9c.4-1.3.2-2.7-.8-3.7-1.5-1.5-4.1-1.5-5.8.2-1.7 1.6-2.8 4.6-1.3 6.3 1.5 1.7 3.3.7 4.6.4-.4 1.3-1.5 2.5-.1 4.3 1.4 1.7 3.3.7 4.6.4-.4 1.3-1.4 2.7-.1 4.3 1.3 1.6 3.5.8 4.9.3-.6 1.4-1.7 3-.2 4.7 1.5 1.7 5 .9 6.7-.7 1.7-1.6 1.9-4.2.4-5.8-1-1.3-2.6-1.5-4-1.1zm31.3-10.9L57.6 63.2s-2-2-4.6-.8c-1.9.8-4.2 1.9-6 2.8-2 1-3.4 1.4-4.1 1.4-3.8 0-6.9-3.1-6.9-6.9 0-2.5 1.3-4.6 3.3-5.9 2.8-1.9 9.1-5.3 9.1-5.3s-1.9-2.4-6.2-2.4c-4.2 0-13.1 5.8-13.1 5.8s-2.5 1.6-6.1.2l-7-2.6v24s2 .6 3.7 1.3c.4-1.1 1-2.2 1.9-3.1 2.9-2.8 7.8-2.8 10.5-.1.8.8 1.4 1.8 1.7 2.9 1.1.3 2 .9 2.8 1.7.8.8 1.4 1.8 1.7 2.9 1.1.3 2 .9 2.8 1.7.9.9 1.5 2 1.7 3.2 1.1.3 2.1.9 3 1.8 1.6 1.6 2.2 3.9 1.8 6 0 0 1 1.1 1.6 1.7 1.2 1.2 3.1 1.2 4.3 0 1.2-1.2 1.2-3.1 0-4.3 0 0-4.3-4.5-3.9-4.8.3-.3 5.7 5.3 5.8 5.4 1.2 1.2 3.1 1.2 4.3 0 1.2-1.2 1.2-3.1 0-4.3l-.4-.4s-5.3-4.8-4.9-5.2c.4-.4 7 5.8 7 5.8 1.2 1.1 3 1.1 4.2-.1 1.1-1.1 1.1-2.9.2-4.1 0-.1-5.1-5.3-4.7-5.7.4-.4 5.4 4.7 5.4 4.7 1.2 1.2 3.1 1.2 4.3 0 1.2-.9 1.2-2.9 0-4.1zm28.6-8.3c-.3 0-.6-.3-.6-.6 0-11.6-4.1-22.8-11.6-31.6-.2-.3-.2-.7.1-.9.3-.2.7-.2.9.1 7.7 9 11.9 20.5 11.9 32.4-.1.3-.4.6-.7.6zM76.5 26.5c-.1 0-.2 0-.3-.1-4.6-2.9-9.6-5-14.8-6.3-.3-.1-.5-.4-.5-.8.1-.3.4-.5.8-.5 5.4 1.3 10.5 3.5 15.2 6.4.3.2.4.6.2.9-.2.3-.4.4-.6.4zM24 26.2c-.2 0-.4-.1-.5-.3-.2-.3-.1-.7.2-.9 4.7-2.9 9.7-5 15.1-6.2.3-.1.7.1.8.5.1.3-.1.7-.5.8-5.2 1.2-10.1 3.2-14.7 6.1-.2-.1-.3 0-.4 0zM.6 68.1c-.3 0-.6-.3-.6-.6 0-12.3 4.5-24.2 12.8-33.4.2-.3.6-.3.9 0 .3.2.3.6 0 .9-8 8.9-12.4 20.5-12.4 32.5-.1.3-.3.6-.7.6z"/><path d="M81.9 20.6c-5.5 0-10 4.5-10 10s4.5 10 10 10 10-4.5 10-10-4.5-10-10-10zm3.5 4.5c-2.5 0-4.5 1.6-5.3 3.7h5.2v1.4h-5.5v1h5.5v1.4H80c.8 2.2 2.9 3.7 5.3 3.7v1.4c-3.3 0-6-2.2-6.8-5.2h-2.2v-1.4h2v-1h-2v-1.4h2.2c.9-3 3.6-5.2 6.8-5.2v1.6z"/></g><g class="st1"><path d="M165.9-3.6h-6c-.2 0-.3.1-.3.2v3.3c0 .1.1.2.3.2h6c1.3 0 2.4-.8 2.4-1.9-.1-1-1.1-1.8-2.4-1.8zm0 5.4h-6c-.2 0-.3.1-.3.2v3.3c0 .1.1.2.3.2h6c1.3 0 2.4-.8 2.4-1.9-.1-.9-1.1-1.8-2.4-1.8z"/><path d="M163.5-10c-6.1 0-11 4.9-11 11s4.9 11 11 11 11-4.9 11-11-4.9-11-11-11zm6.3 13.8c0 1.8-1.4 3.2-3.2 3.2h-3.8v1.4h-1.4V7h-.9v1.4H159V7h-.5c-.2 0-.4-.2-.4-.4V-4.6c0-.2.2-.4.4-.4h.5v-1.4h1.4V-5h.9v-1.4h1.4V-5h3.8c1.8 0 3.2 1.4 3.2 3.2 0 1.2-.7 2.3-1.7 2.8 1.1.5 1.8 1.6 1.8 2.8zM138 3c-4.4 0-8 3.6-8 8s3.6 8 8 8 8-3.6 8-8-3.6-8-8-8zm-4.2 8.9c-.4 0-.8-.4-.8-.8s.4-.8.8-.8.8.4.8.8-.4.8-.8.8zm6.4-3.7h-.9c0-.5-.2-.9-.2-.9-.5-.9-1.8-.5-2.1 0-.4.5-.5 2.6.7 3.2 2.1.7 2.5 2.1 2.5 3.2 0 .9-.1 2.1-1.6 2.4v.9h-1.1v-.9c-1.7-.2-1.6-2.1-1.6-2.1h.9c0 1.6 2.3 1.6 2.3-.2s-.7-1.9-1.9-2.5c-1.2-.5-1.4-1.9-1.4-2.8 0-.8 0-2.3 1.8-2.6V5h1.1v1c1.7.3 1.5 2.2 1.5 2.2zm2 3.7c-.4 0-.8-.4-.8-.8s.4-.8.8-.8.8.4.8.8-.4.8-.8.8z"/><path class="st6" d="M191.7 28v16.7s-3.6.7-4.3.8c-.7.1-3 .8-4.7-.8-2.6-2.5-11.8-11.6-11.8-11.6s-1.6-1.6-4.1-.2c-2.3 1.2-5.8 3-7.2 3.7-2.7 1.5-5-.9-5-2.6 0-1.4.9-2.3 2.1-3 3.3-2 10.2-5.9 13.1-7.4 1.8-.9 3-1 5.4 1 3 2.5 5.6 4.8 5.6 4.8s.9.7 2.2.4c3.4-.7 8.7-1.8 8.7-1.8zm-36.6 28.3c.4-1.1.3-2.4-.6-3.3-.8-.8-1.9-1-3-.7.3-1.1.1-2.2-.6-3-.8-.8-1.9-1-3-.7.3-1.1.1-2.2-.6-3-1.2-1.2-3.3-1.2-4.7.1-1.4 1.3-2.2 3.7-1 5.1 1.2 1.4 2.6.5 3.7.3-.3 1.1-1.2 2-.1 3.4 1.1 1.4 2.6.5 3.7.3-.3 1.1-1.1 2.1-.1 3.4 1.1 1.3 2.8.6 3.9.2-.4 1.1-1.4 2.4-.2 3.7 1.2 1.4 4 .7 5.4-.6 1.4-1.3 1.5-3.4.3-4.6-.7-.7-2-.9-3.1-.6zm25-8.7L169.5 37s-1.6-1.6-3.7-.7c-1.5.7-3.4 1.5-4.8 2.2-1.6.8-2.7 1.1-3.3 1.1-3.1 0-5.5-2.5-5.5-5.5 0-2 1.1-3.7 2.6-4.7 2.2-1.5 7.3-4.2 7.3-4.2s-1.5-2-4.9-2c-3.4 0-10.5 4.6-10.5 4.6s-2 1.3-4.9.1l-5.5-1.9v19.2s1.6.5 3 1c.3-.9.8-1.8 1.6-2.4 2.3-2.2 6.2-2.3 8.4-.1.6.7 1.1 1.5 1.3 2.3.9.3 1.6.7 2.3 1.4.6.7 1.1 1.5 1.3 2.3.9.3 1.6.7 2.3 1.4.7.7 1.2 1.6 1.4 2.6.9.3 1.7.7 2.4 1.4 1.3 1.3 1.7 3.1 1.5 4.8 0 0 .8.9 1.3 1.4.9.9 2.5.9 3.4 0 .9-.9.9-2.5 0-3.4 0 0-3.4-3.6-3.1-3.8.3-.3 4.6 4.2 4.7 4.3.9.9 2.5.9 3.4 0 .9-.9.9-2.5 0-3.4l-.3-.3s-4.3-3.8-3.9-4.1c.3-.3 5.6 4.6 5.6 4.6 1 .9 2.4.9 3.3-.1.9-.9.9-2.3.1-3.3 0-.1-4-4.3-3.7-4.6.3-.3 4.3 3.8 4.3 3.8.9.9 2.5.9 3.4 0 .8-.9.8-2.4-.2-3.4.1 0 .1 0 0 0z"/><path d="M193.6 14.9c5.9 6.9 9.4 15.8 9.4 25.6M172.7 2.1c4.3 1 8.4 2.8 12 5.1m-42-.3c3.6-2.2 7.6-3.9 11.9-4.9M124 40.5c0-10.1 3.8-19.4 10.1-26.4" fill="none" stroke="#030104" stroke-linecap="round" stroke-miterlimit="10"/><path d="M189 3c-4.4 0-8 3.6-8 8s3.6 8 8 8 8-3.6 8-8-3.6-8-8-8zm2.8 3.6c-2 0-3.6 1.3-4.3 3h4.1v1.1h-4.4v.8h4.4v1.1h-4.1c.6 1.7 2.3 3 4.3 3v1.1c-2.6 0-4.8-1.8-5.5-4.1h-1.8v-1.1h1.6v-.8h-1.6V9.6h1.8a5.7 5.7 0 015.5-4.1v1.1z"/></g></g><g id="Fundraising" class="st0"><g class="st1"><path d="M72.1 72.8c-4.1.3-9.6 4.4-14.9 6.8-6.5 2.9-16.5.6-16.5.6 1.6-.7 7.8-2.2 9.1-2.8 6.7-3 6.2-9.1 3-9.1-4.2.1-6.7 1.1-15.2 2.3-6.4.9-14 .6-17.6 1.9-5.1 2-13.4 15.2-13.4 15.2L19.4 100s7.9-7.8 11.8-7.8c8.8 0 9.1-.1 17.3-.6 3.5-.2 4.2-.3 6.2-1C65.3 87 76.6 77.5 76.8 76.4c.4-2.6-2.5-3.8-4.7-3.6zM27.9 27.2c4.1-.3 9.6-4.4 14.9-6.8 6.5-2.9 16.5-.6 16.5-.6-1.6.7-7.8 2.2-9.1 2.8-6.7 3-6.2 9.1-3 9.1 4.2-.1 6.7-1.1 15.2-2.3 6.4-.9 14-.6 17.6-1.9 5.1-2 13.4-15.2 13.4-15.2L80.6 0s-7.9 7.8-11.8 7.8c-8.8 0-9.1.1-17.3.6-3.5.2-4.2.3-6.2 1C34.7 13 23.4 22.5 23.2 23.6c-.4 2.6 2.5 3.8 4.7 3.6zm23.8 15.7h-9.1c-.2 0-.4.2-.4.4v5c0 .2.2.4.4.4h9.1c2 0 3.6-1.3 3.6-2.8-.1-1.7-1.7-3-3.6-3zm0 8.2h-9.1c-.2 0-.4.2-.4.4v5c0 .2.2.4.4.4h9.1c2 0 3.6-1.3 3.6-2.8-.1-1.8-1.7-3-3.6-3z"/><path d="M48.5 33.4c-9.2 0-16.6 7.4-16.6 16.6 0 9.2 7.4 16.6 16.6 16.6 9.2 0 16.6-7.4 16.6-16.6 0-9.2-7.4-16.6-16.6-16.6zm9.1 20.7c0 2.6-2.1 4.8-4.8 4.8H47V61h-2.1v-2.1h-1.4V61h-2.1v-2.1h-.8c-.3 0-.6-.3-.6-.6v-17c0-.3.3-.6.6-.6h.8v-2.1h2.1v2.1h1.4v-2.1H47v2.1h5.8c2.6 0 4.8 2.1 4.8 4.8 0 1.9-1.1 3.5-2.6 4.3 1.6.8 2.6 2.4 2.6 4.3z"/><path d="M48.5 71.6c-11.9 0-21.6-9.7-21.6-21.6 0-11.9 9.7-21.6 21.6-21.6 11.9 0 21.6 9.7 21.6 21.6 0 11.9-9.6 21.6-21.6 21.6zm0-41.8c-11.2 0-20.2 9.1-20.2 20.2 0 11.2 9.1 20.2 20.2 20.2 11.2 0 20.2-9.1 20.2-20.2.1-11.2-9-20.2-20.2-20.2z"/></g><g class="st1"><path d="M154.4 70.3c-3 .2-6.9 3.2-10.7 4.9-4.6 2.1-11.9.4-11.9.4 1.1-.5 5.7-1.6 6.6-2 4.9-2.1 4.4-6.6 2.1-6.6-3.1.1-4.8.8-10.9 1.6-4.6.6-10.1.4-12.7 1.4-3.7 1.4-9.7 10.9-9.7 10.9l9.2 8.9s5.7-5.6 8.5-5.6c6.3 0 6.6-.1 12.4-.4 2.5-.1 3-.2 4.4-.7 7.6-2.6 15.8-9.4 15.9-10.3.5-1.7-1.6-2.6-3.2-2.5zm-31.8-32.7c3-.2 6.9-3.2 10.7-4.9 4.6-2.1 11.9-.4 11.9-.4-1.1.5-5.7 1.6-6.6 2-4.9 2.1-4.4 6.6-2.1 6.6 3.1-.1 4.8-.8 10.9-1.6 4.6-.6 10.1-.4 12.7-1.4 3.7-1.4 9.7-10.9 9.7-10.9l-9.2-8.9s-5.7 5.6-8.5 5.6c-6.3 0-6.6.1-12.4.4-2.5.1-3 .2-4.4.7-7.6 2.6-15.8 9.4-15.9 10.3-.5 1.7 1.6 2.6 3.2 2.5zm17.1 11.2h-6.5c-.2 0-.3.1-.3.3v3.6c0 .1.1.3.3.3h6.5c1.4 0 2.6-.9 2.6-2 0-1.2-1.2-2.2-2.6-2.2zm0 5.9h-6.5c-.2 0-.3.1-.3.3v3.6c0 .1.1.3.3.3h6.5c1.4 0 2.6-.9 2.6-2 0-1.3-1.2-2.2-2.6-2.2z"/><path d="M137.4 42c-6.6 0-11.9 5.4-11.9 11.9 0 6.6 5.3 11.9 11.9 11.9 6.6 0 11.9-5.3 11.9-11.9.1-6.5-5.3-11.9-11.9-11.9zm6.6 14.9c0 1.9-1.5 3.4-3.4 3.4h-4.2v1.5h-1.5v-1.5h-1v1.5h-1.5v-1.5h-.6c-.2 0-.4-.2-.4-.4V47.7c0-.2.2-.4.4-.4h.6v-1.5h1.5v1.5h1v-1.5h1.5v1.5h4.2c1.9 0 3.4 1.5 3.4 3.4 0 1.3-.8 2.5-1.9 3.1 1.1.6 1.9 1.8 1.9 3.1z"/><circle cx="137.4" cy="53.9" r="15.1" fill="none" stroke="#000" stroke-miterlimit="10"/></g></g><g id="Transnational_Business" class="st0"><g class="st1"><path d="M13.1 70.6c.5-.2 1.2.2 1.4-.2.2-.5-.5-1.2-.5-1.2l.2-1.4.2-1.2.7-1.2s.5-.2 1.6 1.2c1.2 1.4.2.9.2.9l.5 1.4 2.1.5.5-.5-.9-1.6.9-1.6h2.6l.5-.5c.2-.2 4.2-1.9 1.9-1.6-2.3.2-3.5-2.3-3.5-2.3l-1.4-2.6v-3s.9-1.2 4.2-1.2 3.3.7 3.3.7 1.2-.5 2.8-1.6c1.6-1.2.5-2.1.5-2.1V47l2.8-4.5 1.2-1.2 2.1.2 2.8-1.6-.2-4.7-1.2-3.3s-.7-2.1-2.3-1.9c-1.6.2-.7 1.2-1.6 2.1-.9.9-.9 1.6-2.6 2.1-1.6.5-.7-.9.7-2.6 1.4-1.6 1.9-8 1.9-8l-2.8 2.8C30 28.2 27.4 31 26 30.1c-1.4-.9-7.3 4-8.9 4-1.1 0-5.8 2.1-8.6 3.4 0 .1-.1.3-.1.4-1.1 3.8-1.7 7.9-1.7 12.1 0 8.3 2.3 16 6.3 22.6-.1-1-.1-1.9.1-2zm57.1-59.2c-.1 0-.1-.1-.2-.1-1 .6-4.1 2.7-6 5.4-2.3 3.3-2.6 7.3-5.6 8-3 .7-9.1 2.6-9.1 4S47 32 48.1 33.4c1.2 1.4 4.2 4 4 5.9s-1.9.7-.5 4 3.3 4 6.1 3.8c2.8-.2 3.8-1.4 4.9-3.5 1.2-2.1-1.6-4.2.9-4.2 2.6 0 6.6-.5 7.3.7.7 1.2 1.4 1.2 1.6 2.3.2 1.2 1.6 0 1.6 2.6s2.6 2.1 2.6 2.1 4.9-1.4 6.1 0c1.2 1.4.9 1.9.5 3.5-.5 1.6-.7 0-1.4 3.8s.2 2.8 2.1 4.9c1.9 2.1 5.6-.9 6.1-1.4.5-.5.5-.2.5 1.2s.7.9 0 2.8c-.6 1.6.7.8.5 3h.1c1.7-4.6 2.6-9.6 2.6-14.7 0-17-9.5-31.6-23.5-38.8zM59 84c-1 0-2.1-.2-2.5-.3l-6.6-6.1-.5-3.6-2.9-1.6h-3.4l-2.8-.4.2-4c.2-1.1.4-1.8 1.4-2.4.8-.5 1.1-.6 1.6-.6.3 0 .7.1 1.2.2 1.6.4 3.2 1.4 3.2 1.4l.1.1 2.4-.3 2.7-2.2 2.1-1.2.3-.3 1.2.2 1.9.7h.1s.4-.1.8-.1c.5 0 1 .1 1.2.5.2.4.3.8.5.9l.4 3.1-.5 2.3 1.4 1.7h.1c.5.3 1.2.8 1.3 1.2v.2c-.7.9-.9 2-1 2.2-.3.6-2.6 5.2-2.1 7.5 0 .3 0 .4-.1.4.1.2-.3.5-1.7.5z"/><path d="M55.9 63.3l.8.1 1.8.7.3.1.3-.1s.3-.1.7-.1c.5 0 .7.1.7.2.1.3.3.7.5 1l.4 2.9-.5 1.9-.1.5.3.4 1.2 1.4.1.1.2.1c.4.2.8.6 1 .8-.6.9-.9 1.8-1 2.2-.5.9-2.6 5.3-2.1 7.8-.1.1-.5.2-1.4.2-.9 0-1.8-.1-2.3-.2l-6.3-5.9-.5-3.1-.1-.5-.4-.2-2.6-1.4-.2-.2h-3.5l-2.3-.3.2-3.5c.2-1.1.4-1.6 1.2-2.1.7-.4 1-.6 1.4-.6.3 0 .6.1 1.1.2 1.5.4 3 1.3 3.1 1.3l.3.2h.3l2.1-.2h.3l.2-.2 2.5-2.1 2-1.1.1-.1.1-.1.1-.1m-.3-1.1l-.5.5-2.1 1.1-2.6 2.1-2.1.2s-1.6-.9-3.3-1.4c-.6-.2-1-.2-1.4-.2-.7 0-1.1.3-1.9.7-1.2.7-1.4 1.6-1.6 2.8l-.2 4.5 3.3.5h3.3l2.6 1.4.5 3.5 6.8 6.3s1.4.3 2.8.3 2.6-.3 2.4-1.5c-.5-2.3 2.1-7.3 2.1-7.3s.2-1.2.9-2.1c.7-.9-1.4-2.1-1.4-2.1L62 70.1l.5-2.1-.5-3.5v.1c-.1 0-.2-.1-.4-.8s-1-.8-1.7-.8c-.5 0-.9.1-.9.1l-2-.7-1.4-.2z"/><path d="M50 7.3c23.5 0 42.7 19.1 42.7 42.7S73.5 92.7 50 92.7 7.3 73.5 7.3 50 26.5 7.3 50 7.3m0-1C25.9 6.3 6.3 25.9 6.3 50S25.9 93.7 50 93.7 93.7 74.1 93.7 50 74.1 6.3 50 6.3z"/><circle cx="50" cy="50" r="50" fill="none" stroke="#000" stroke-width=".5" stroke-miterlimit="10"/></g></g></svg>