<svg version="1.1" id="레이어_1" xmlns="http://www.w3.org/2000/svg" x="0" y="0" viewBox="0 0 100 31" xml:space="preserve"><style>.st1{fill:#fff}</style><path fill="#2d3e49" d="M0 0h100v31H0z"/><path class="st1" d="M5.6 7.5v16.1h9.8v-3.3H8.9V7.5zm11.3 4.8H20v11.1h-3.1z"/><circle class="st1" cx="18.5" cy="9.1" r="2.1"/><path class="st1" d="M21.7 12.3v11.1h3.1v-7.1s0-1.2 2.3-1.2c1.5 0 1.7 1.2 1.7 1.2v7.1h3.3v-8.8s-.5-2.8-3.8-2.8-3.5 2.2-3.5 2.2v-1.7h-3.1zm11.9-4.8v15.9h3.2v-4.8l4.1 4.8h4l-4.8-6.1 4.9-5h-4.1l-4.1 4.2v-9z"/><path class="st1" d="M55.6 18.6v-2.8s-.5-3.8-5-3.8-6 2.5-6 4v4.1s.7 3.6 5.8 3.6c4.1 0 5.1-2.2 5.1-2.2l-2.5-2s-2 2-4.3.7c-1.3-.8-.7-1.7-.7-1.7l7.6.1zm-5.2-4c2 0 2 1.7 2 1.7h-4.3c0-.6.3-1.7 2.3-1.7zm15.1-7.1v6S64 12 62 12s-5.1.7-5.1 5.8 3.6 5.8 5 5.8c1.3 0 3.6-1.2 3.6-1.2v1.2h3.3V7.5h-3.3zm0 11.5s-.5 1.2-2.8 1.2-2.6-1.7-2.6-2.5c0-2.2 2-2.3 2.6-2.3 2.2 0 2.8 1.2 2.8 1.2V19z"/><path d="M93.4 26.7H72.8c-.5 0-.9-.4-.9-.9V5.2c0-.5.4-.9.9-.9h20.7c.5 0 .9.4.9.9v20.7c0 .4-.4.8-1 .8z" fill="#3476b0"/><path class="st1" d="M80.8 12.3v11.1h3.1v-7.1s0-1.2 2.3-1.2c1.5 0 1.7 1.2 1.7 1.2v7.1h3.3v-8.8s-.5-2.8-3.8-2.8-3.5 2.2-3.5 2.2v-1.7h-3.1zm-5.7 0h3.3v11.3h-3.3z"/><circle class="st1" cx="76.7" cy="9" r="2.2"/></svg>